<svg xmlns="http://www.w3.org/2000/svg" viewBox="0 0 131 131"><defs><style>.cls-1{fill:none;stroke:#fff;stroke-miterlimit:10;}.cls-2{fill:#c4b798;}</style></defs><title>twitter</title><g id="Calque_2" data-name="Calque 2"><g id="Calque_1-2" data-name="Calque 1"><rect class="cls-1" x="0.5" y="0.5" width="130" height="130"/></g><g id="Calque_2-2" data-name="Calque 2"><path class="cls-2" d="M97.37,46.32a26.11,26.11,0,0,1-7.51,2.06,13.13,13.13,0,0,0,5.75-7.23,26.36,26.36,0,0,1-8.31,3.17A13.09,13.09,0,0,0,65,56.24a37.13,37.13,0,0,1-27-13.66,13.09,13.09,0,0,0,4,17.46,13.08,13.08,0,0,1-5.92-1.64v.16A13.09,13.09,0,0,0,46.68,71.38a13.25,13.25,0,0,1-3.45.46,12.55,12.55,0,0,1-2.46-.24A13.08,13.08,0,0,0,53,80.68a26.24,26.24,0,0,1-16.24,5.59,27.79,27.79,0,0,1-3.12-.18,37,37,0,0,0,20,5.88c24.06,0,37.2-19.92,37.2-37.2l0-1.69A26.11,26.11,0,0,0,97.37,46.32Z"/></g></g></svg>