<svg xmlns="http://www.w3.org/2000/svg" viewBox="0 0 131 131"><defs><style>.cls-1{fill:#c4b798;}.cls-2{fill:none;stroke:#fff;stroke-miterlimit:10;}</style></defs><title>youtube</title><g id="Calque_2" data-name="Calque 2"><g id="Calque_1-2" data-name="Calque 1"><path class="cls-1" d="M95.38,66.8a7.82,7.82,0,0,0-6.69-6.08,208,208,0,0,0-23.18-.86,208,208,0,0,0-23.18.86,7.82,7.82,0,0,0-6.69,6.08c-1.08,4.69-1.09,9.8-1.09,14.63s0,9.94,1.08,14.63a7.82,7.82,0,0,0,6.69,6.08A208,208,0,0,0,65.5,103a207.81,207.81,0,0,0,23.18-.86,7.82,7.82,0,0,0,6.69-6.08c1.08-4.69,1.08-9.8,1.08-14.63S96.46,71.49,95.38,66.8ZM52.21,70.43H47.73v23.8H43.57V70.43h-4.4v-3.9h13Zm11.3,23.81H59.77V92c-1.49,1.7-2.9,2.54-4.27,2.54A2.29,2.29,0,0,1,53.08,93a10.54,10.54,0,0,1-.33-3.07V73.59h3.74v15.2a11.65,11.65,0,0,0,0,1.45c.09.58.37.87.87.87.75,0,1.53-.58,2.36-1.75V73.59h3.74V94.24ZM77.72,88a16.49,16.49,0,0,1-.38,4.16,3,3,0,0,1-3,2.32c-1.33,0-2.62-.74-3.87-2.28v2H66.75V66.53h3.74v9a5.07,5.07,0,0,1,3.87-2.24,3,3,0,0,1,3,2.33,15.85,15.85,0,0,1,.38,4.15ZM91.84,84.6H84.35v3.66c0,1.91.63,2.86,1.91,2.86a1.61,1.61,0,0,0,1.67-1.5A23.53,23.53,0,0,0,88,87.09h3.82v.55c0,1.21,0,2-.08,2.41a5.33,5.33,0,0,1-.87,2.24,5.18,5.18,0,0,1-4.52,2.24,5.36,5.36,0,0,1-4.53-2.11,8,8,0,0,1-1.2-4.85V80.32a8,8,0,0,1,1.16-4.86,5.32,5.32,0,0,1,4.48-2.12,5.2,5.2,0,0,1,4.41,2.12,8.11,8.11,0,0,1,1.16,4.86V84.6Z"/><path class="cls-1" d="M86.23,76.71q-1.88,0-1.88,2.86v1.91H88.1V79.57C88.09,77.66,87.47,76.71,86.23,76.71Z"/><path class="cls-1" d="M72.35,76.71a2.68,2.68,0,0,0-1.87.91V90.2a2.67,2.67,0,0,0,1.87.92c1.08,0,1.63-.92,1.63-2.79V79.53C74,77.66,73.43,76.71,72.35,76.71Z"/><path class="cls-1" d="M74.44,58c1.38,0,2.81-.84,4.32-2.56v2.28h3.78V36.81H78.76V52.75c-.84,1.18-1.63,1.77-2.39,1.77-.51,0-.8-.3-.89-.89a8.77,8.77,0,0,1,0-1.47V36.81H71.67V53.3a10.54,10.54,0,0,0,.33,3.1A2.32,2.32,0,0,0,74.44,58Z"/><path class="cls-1" d="M48.12,46.33V57.67h4.19V46.33l5-16.66H53.12l-2.86,11-3-11H42.87c.88,2.59,1.8,5.2,2.69,7.8A69,69,0,0,1,48.12,46.33Z"/><path class="cls-1" d="M63,58a5.15,5.15,0,0,0,4.41-2.14,8.16,8.16,0,0,0,1.17-4.91V43.61a8.18,8.18,0,0,0-1.17-4.91,5.61,5.61,0,0,0-8.81,0,8.11,8.11,0,0,0-1.18,4.91v7.31a8.09,8.09,0,0,0,1.18,4.91A5.15,5.15,0,0,0,63,58Zm-1.8-15.1c0-1.93.59-2.89,1.8-2.89s1.8,1,1.8,2.89v8.78c0,1.93-.58,2.9-1.8,2.9s-1.8-1-1.8-2.9Z"/><rect class="cls-2" x="0.5" y="0.5" width="130" height="130"/></g></g></svg>