<svg xmlns="http://www.w3.org/2000/svg" viewBox="0 0 215.77 381.7"><defs><style>.cls-1{fill:#797979;}</style></defs><title>next</title><g id="Calque_2" data-name="Calque 2"><g id="Calque_1-2" data-name="Calque 1"><path class="cls-1" d="M49.74,186.73c1.58,1.39,2.77,2.33,3.83,3.38q77.53,77.5,155,155c4.16,4.16,7.11,8.91,7.16,14.9.08,9.19-4.51,15.74-12.58,19.63-7.88,3.8-15.23,2.09-21.83-3.38-.7-.58-1.34-1.25-2-1.9Q93.28,288.3,7.19,202.22C.86,195.9-1.88,188.53,1.38,180A28.57,28.57,0,0,1,8,170.55q81.81-82,163.8-163.89C177.45,1,184.19-1.47,192.07.89s13,7.71,14.93,15.68c1.72,7.17-.48,13.48-5.5,18.82-.86.91-1.76,1.78-2.64,2.66Q125.67,111.23,52.48,184.4C51.78,185.1,51,185.69,49.74,186.73Z"/></g></g></svg>