<svg xmlns="http://www.w3.org/2000/svg" viewBox="0 0 449.02 50.48"><title>Fichier 1</title><g id="Calque_2" data-name="Calque 2"><g id="Calque_1-2" data-name="Calque 1"><path d="M20.71,29.8V27.48a6.86,6.86,0,0,0-1-4.14,4.79,4.79,0,0,0-3.93-1.44q-3.49,0-4.55,2.32A7.19,7.19,0,0,0,10.83,27H1.33a9.61,9.61,0,0,1,3.11-7.21Q8,16.41,16.27,16.41q7.62,0,11.21,3a8.23,8.23,0,0,1,2.87,4.85A28.42,28.42,0,0,1,30.86,30V49.46H21.09V43.54q-2.6,6.8-10.39,6.8-5.47,0-8.17-2.8A9.38,9.38,0,0,1,0,40.71q0-9,10.08-10.6A101.41,101.41,0,0,1,20.71,29.8Zm0,4.51q-6.77,0-8.72,1.23a4.82,4.82,0,0,0-2.19,4.38,4,4,0,0,0,1.47,3.42,5.13,5.13,0,0,0,3.21.92,5.33,5.33,0,0,0,4.75-2.43Q20.71,39.61,20.71,34.32Z"/><path d="M68.94,17.33V49.46H59.2V43q-2.94,7.21-11,7.21-6.12,0-8.82-4.1a10.64,10.64,0,0,1-1.64-4.58,37.72,37.72,0,0,1-.21-4.14V17.33H48.06V35.79q0,7.52,4.72,7.52a4.91,4.91,0,0,0,2.77-.84,5.08,5.08,0,0,0,1.88-2.24,18.23,18.23,0,0,0,1-7V17.33Z"/><path d="M97.82,0h10.49V49.46H98.57v-6q-3.42,6.77-10.77,6.77T77,44.71q-2.53-4.07-2.53-11.62,0-8.72,3.73-12.71a12.17,12.17,0,0,1,9.37-3.79q7.21,0,10.22,6.25ZM91.43,23.34A4.89,4.89,0,0,0,87,25.89q-1.52,2.55-1.52,7.47,0,10,6.08,10a5.21,5.21,0,0,0,5-3.11,15.22,15.22,0,0,0,1.3-6.84Q97.79,23.34,91.43,23.34Z"/><path d="M121.17.44A6.5,6.5,0,0,1,125.75,2a5.29,5.29,0,0,1,1.64,4.1,5.2,5.2,0,0,1-1.71,4.17,6.64,6.64,0,0,1-4.44,1.37,7.11,7.11,0,0,1-4.65-1.4,5.08,5.08,0,0,1-1.81-4.14,5.25,5.25,0,0,1,2-4.44A7,7,0,0,1,121.17.44Zm5.13,16.88V49.46H115.8V17.33Z"/><path d="M149.95,16.3q8,0,12.75,5,4.1,4.31,4.1,12.13,0,9.09-5.57,13.47-4.61,3.62-11.83,3.62-8.24,0-12.85-4.65-4.34-4.34-4.34-12.54,0-8.61,5.2-13Q142.05,16.3,149.95,16.3Zm-.51,6.29q-6.29,0-6.29,10.9,0,10.7,6.29,10.7t6.43-10.77a19.43,19.43,0,0,0-1.23-7.55A5.2,5.2,0,0,0,149.43,22.59Z"/><path d="M170.86,28.4h16.41v7.45H170.86Z"/><path d="M204.29,6.87V17.33h8.13v6.25h-8.13V36.5a14.5,14.5,0,0,0,.62,5.06,3.12,3.12,0,0,0,3.21,1.88,13.19,13.19,0,0,0,4.41-1v6.46a32.64,32.64,0,0,1-8.92,1.3q-5.4,0-7.83-3.42-2-2.73-2-8.07V23.58h-4.34V17.33h4.34V10.56Z"/><path d="M247.6,35.75H225q.07,8.75,6.8,8.75,4.34,0,6-4.48h9.33a13.16,13.16,0,0,1-3.32,6.15,13.64,13.64,0,0,1-5.2,3.06,21,21,0,0,1-6.9,1.11q-8,0-12.24-4.61a15.44,15.44,0,0,1-3-5.47,22,22,0,0,1-1.09-7q0-8.31,4.61-12.71,4.34-4.14,11.72-4.14a18.66,18.66,0,0,1,7.47,1.45,13,13,0,0,1,5.35,4.08q3.14,4.1,3.14,12.27ZM238,30.35a10.16,10.16,0,0,0-1.2-5.23,5.63,5.63,0,0,0-5.13-2.87,5.75,5.75,0,0,0-5.5,3.38,10.28,10.28,0,0,0-1,4.72Z"/><path d="M273.85,37.6h9.78a16.32,16.32,0,0,1-2.05,7.18q-3.32,5.43-13.23,5.43-7.62,0-12-4.24t-4.44-12.58q0-7.86,4.14-12.2,4.41-4.61,12.37-4.61,8.89,0,12.82,5.43a12.38,12.38,0,0,1,2.32,7.25h-9.78a9.72,9.72,0,0,0-.41-3q-1.2-3.52-4.58-3.52Q263,22.7,263,33.6q0,10.49,5.67,10.49,3.55,0,4.79-3.79A12.3,12.3,0,0,0,273.85,37.6Z"/><path d="M299.82,23.31q2.7-6.73,10.36-6.73,6,0,8.68,4.1a10.64,10.64,0,0,1,1.64,4.58,37.72,37.72,0,0,1,.21,4.14V49.46H310.21V31q0-7.52-4.72-7.52a5,5,0,0,0-2.79.84,4.85,4.85,0,0,0-1.86,2.2,18.5,18.5,0,0,0-1,7V49.46H289.33V0h10.49Z"/><path d="M337.49,17.33v6.43q2.87-7.18,11-7.18,6.12,0,8.82,4.1a10.64,10.64,0,0,1,1.64,4.58,37.72,37.72,0,0,1,.21,4.14V49.46H348.63V31q0-7.52-4.72-7.52a5,5,0,0,0-2.79.84,4.85,4.85,0,0,0-1.86,2.2,18.5,18.5,0,0,0-1,7V49.46H327.75V17.33Z"/><path d="M371.57.44A6.5,6.5,0,0,1,376.15,2a5.29,5.29,0,0,1,1.64,4.1,5.2,5.2,0,0,1-1.71,4.17,6.64,6.64,0,0,1-4.44,1.37,7.11,7.11,0,0,1-4.65-1.4,5.08,5.08,0,0,1-1.81-4.14,5.25,5.25,0,0,1,2-4.44A7,7,0,0,1,371.57.44Zm5.13,16.88V49.46H366.2V17.33Z"/><path d="M404.52,37.6h9.78a16.32,16.32,0,0,1-2.05,7.18q-3.32,5.43-13.23,5.43-7.62,0-12-4.24t-4.44-12.58q0-7.86,4.14-12.2,4.41-4.61,12.37-4.61,8.89,0,12.82,5.43a12.38,12.38,0,0,1,2.32,7.25h-9.78a9.72,9.72,0,0,0-.41-3q-1.2-3.52-4.58-3.52-5.84,0-5.84,10.9,0,10.49,5.67,10.49,3.55,0,4.79-3.79A12.3,12.3,0,0,0,404.52,37.6Z"/><path d="M438.87,29.8V27.48a6.86,6.86,0,0,0-1-4.14A4.79,4.79,0,0,0,434,21.91q-3.49,0-4.55,2.32A7.19,7.19,0,0,0,429,27h-9.5a9.61,9.61,0,0,1,3.11-7.21q3.52-3.35,11.83-3.35,7.62,0,11.21,3a8.23,8.23,0,0,1,2.87,4.85A28.42,28.42,0,0,1,449,30V49.46h-9.78V43.54q-2.6,6.8-10.39,6.8-5.47,0-8.17-2.8a9.38,9.38,0,0,1-2.53-6.84q0-9,10.08-10.6A101.41,101.41,0,0,1,438.87,29.8Zm0,4.51q-6.77,0-8.72,1.23A4.82,4.82,0,0,0,428,39.92a4,4,0,0,0,1.47,3.42,5.12,5.12,0,0,0,3.21.92,5.33,5.33,0,0,0,4.75-2.43Q438.87,39.61,438.87,34.32Z"/></g></g></svg>