<svg id="Calque_1" data-name="Calque 1" xmlns="http://www.w3.org/2000/svg" viewBox="0 0 695.82 180.73"><title>audio-technica+logo</title><g id="Calque_2" data-name="Calque 2"><g id="Calque_1-2" data-name="Calque 1-2"><path d="M473.71,389.8v-2.32a6.86,6.86,0,0,0-1-4.14,4.79,4.79,0,0,0-3.93-1.44q-3.49,0-4.55,2.32a7.19,7.19,0,0,0-.4,2.78h-9.5a9.61,9.61,0,0,1,3.11-7.21q3.56-3.38,11.83-3.38,7.62,0,11.21,3a8.23,8.23,0,0,1,2.87,4.85,28.42,28.42,0,0,1,.51,5.74v19.46h-9.77v-5.92q-2.6,6.8-10.39,6.8-5.47,0-8.17-2.8a9.38,9.38,0,0,1-2.53-6.83q0-9,10.08-10.6A101.41,101.41,0,0,1,473.71,389.8Zm0,4.51q-6.77,0-8.72,1.23a4.82,4.82,0,0,0-2.19,4.38,4,4,0,0,0,1.47,3.42,5.13,5.13,0,0,0,3.21.92,5.33,5.33,0,0,0,4.75-2.43q1.48-2.22,1.48-7.51Z" transform="translate(-206.18 -294.69)"/><path d="M521.94,377.33v32.13H512.2V403q-2.94,7.21-11,7.21-6.12,0-8.82-4.1a10.64,10.64,0,0,1-1.64-4.58,37.72,37.72,0,0,1-.21-4.14V377.33h10.53v18.46q0,7.52,4.72,7.52a4.91,4.91,0,0,0,2.77-.84,5.08,5.08,0,0,0,1.88-2.24,18.23,18.23,0,0,0,1-7v-15.9Z" transform="translate(-206.18 -294.69)"/><path d="M550.82,360h10.49v49.46h-9.74v-6q-3.42,6.77-10.77,6.77T530,404.71q-2.53-4.07-2.53-11.62,0-8.72,3.73-12.71a12.17,12.17,0,0,1,9.37-3.79q7.21,0,10.22,6.25Zm-6.39,23.34a4.89,4.89,0,0,0-4.43,2.55q-1.52,2.55-1.52,7.47,0,10,6.08,10a5.21,5.21,0,0,0,5-3.11,15.22,15.22,0,0,0,1.3-6.84Q550.79,383.34,544.43,383.34Z" transform="translate(-206.18 -294.69)"/><path d="M574.17,360.44a6.5,6.5,0,0,1,4.58,1.56,5.29,5.29,0,0,1,1.64,4.1,5.2,5.2,0,0,1-1.71,4.17,6.64,6.64,0,0,1-4.44,1.37,7.11,7.11,0,0,1-4.65-1.4,5.08,5.08,0,0,1-1.81-4.14,5.25,5.25,0,0,1,2-4.44A7,7,0,0,1,574.17,360.44Zm5.13,16.88v32.14H568.8V377.33Z" transform="translate(-206.18 -294.69)"/><path d="M602.95,376.3q8,0,12.75,5,4.1,4.31,4.1,12.13,0,9.09-5.57,13.47-4.61,3.62-11.83,3.62-8.24,0-12.85-4.65-4.34-4.34-4.34-12.54,0-8.61,5.2-13Q595.05,376.3,602.95,376.3Zm-.51,6.29q-6.29,0-6.29,10.9,0,10.7,6.29,10.7t6.43-10.77a19.43,19.43,0,0,0-1.23-7.55,5.2,5.2,0,0,0-5.21-3.28Z" transform="translate(-206.18 -294.69)"/><path d="M623.86,388.4h16.41v7.45H623.86Z" transform="translate(-206.18 -294.69)"/><path d="M657.29,366.87v10.46h8.13v6.25h-8.13V396.5a14.5,14.5,0,0,0,.62,5.06,3.12,3.12,0,0,0,3.21,1.88,13.19,13.19,0,0,0,4.41-1v6.46a32.64,32.64,0,0,1-8.92,1.3q-5.4,0-7.83-3.42-2-2.73-2-8.07V383.58h-4.34v-6.25h4.34v-6.77Z" transform="translate(-206.18 -294.69)"/><path d="M700.6,395.75H678q.07,8.75,6.8,8.75,4.34,0,6-4.48h9.33a13.16,13.16,0,0,1-3.32,6.15,13.64,13.64,0,0,1-5.2,3.06,21,21,0,0,1-6.9,1.11q-8,0-12.24-4.61a15.44,15.44,0,0,1-3-5.47,22,22,0,0,1-1.09-7q0-8.31,4.61-12.71,4.34-4.14,11.72-4.14a18.66,18.66,0,0,1,7.47,1.45,13,13,0,0,1,5.35,4.08q3.14,4.1,3.14,12.27Zm-9.6-5.4a10.16,10.16,0,0,0-1.2-5.23,5.63,5.63,0,0,0-5.13-2.87,5.75,5.75,0,0,0-5.5,3.38,10.28,10.28,0,0,0-1,4.72Z" transform="translate(-206.18 -294.69)"/><path d="M726.85,397.6h9.78a16.32,16.32,0,0,1-2,7.18q-3.32,5.43-13.23,5.43-7.62,0-12-4.24t-4.44-12.58q0-7.86,4.14-12.2,4.41-4.61,12.37-4.61,8.89,0,12.82,5.43a12.38,12.38,0,0,1,2.32,7.25h-9.78a9.72,9.72,0,0,0-.41-3q-1.2-3.52-4.58-3.52-5.79,0-5.79,10.86,0,10.49,5.67,10.49,3.55,0,4.79-3.79A12.3,12.3,0,0,0,726.85,397.6Z" transform="translate(-206.18 -294.69)"/><path d="M752.82,383.31q2.7-6.73,10.36-6.73,6,0,8.68,4.1a10.64,10.64,0,0,1,1.64,4.58,37.71,37.71,0,0,1,.21,4.14v20.06h-10.5V391q0-7.52-4.72-7.52a5,5,0,0,0-2.79.84,4.85,4.85,0,0,0-1.86,2.2,18.5,18.5,0,0,0-1,7v15.94H742.33V360h10.49Z" transform="translate(-206.18 -294.69)"/><path d="M790.49,377.33v6.43q2.87-7.18,11-7.18,6.12,0,8.82,4.1a10.64,10.64,0,0,1,1.64,4.58,37.71,37.71,0,0,1,.21,4.14v20.06H801.63V391q0-7.52-4.72-7.52a5,5,0,0,0-2.79.84,4.85,4.85,0,0,0-1.86,2.2,18.5,18.5,0,0,0-1,7v15.94H780.75V377.33Z" transform="translate(-206.18 -294.69)"/><path d="M824.57,360.44a6.5,6.5,0,0,1,4.58,1.56,5.29,5.29,0,0,1,1.64,4.1,5.2,5.2,0,0,1-1.71,4.17,6.64,6.64,0,0,1-4.44,1.37,7.11,7.11,0,0,1-4.65-1.4,5.08,5.08,0,0,1-1.81-4.14,5.25,5.25,0,0,1,2-4.44A7,7,0,0,1,824.57,360.44Zm5.13,16.88v32.14H819.2V377.33Z" transform="translate(-206.18 -294.69)"/><path d="M857.52,397.6h9.78a16.32,16.32,0,0,1-2,7.18q-3.32,5.43-13.23,5.43-7.62,0-12-4.24t-4.44-12.58q0-7.86,4.14-12.2,4.41-4.61,12.37-4.61,8.89,0,12.82,5.43a12.38,12.38,0,0,1,2.32,7.25h-9.78a9.72,9.72,0,0,0-.41-3q-1.2-3.52-4.58-3.52-5.84,0-5.84,10.9,0,10.49,5.67,10.49,3.55,0,4.79-3.79A12.3,12.3,0,0,0,857.52,397.6Z" transform="translate(-206.18 -294.69)"/><path d="M891.87,389.8v-2.32a6.86,6.86,0,0,0-1-4.14,4.79,4.79,0,0,0-3.87-1.43q-3.49,0-4.55,2.32A7.19,7.19,0,0,0,882,387h-9.5a9.61,9.61,0,0,1,3.11-7.21q3.52-3.35,11.83-3.35,7.62,0,11.21,3a8.23,8.23,0,0,1,2.87,4.85A28.42,28.42,0,0,1,902,390v19.46h-9.78v-5.92q-2.6,6.8-10.39,6.8-5.47,0-8.17-2.8a9.38,9.38,0,0,1-2.53-6.84q0-9,10.08-10.6A101.41,101.41,0,0,1,891.87,389.8Zm0,4.51q-6.77,0-8.72,1.23a4.82,4.82,0,0,0-2.15,4.38,4,4,0,0,0,1.47,3.42,5.12,5.12,0,0,0,3.21.92,5.33,5.33,0,0,0,4.75-2.43q1.44-2.22,1.44-7.51Z" transform="translate(-206.18 -294.69)"/></g></g><path d="M296.55,301.19a83.58,83.58,0,1,1-32.64,6.6,83.58,83.58,0,0,1,32.64-6.6m0-6.5a90.36,90.36,0,1,0,90.36,90.35,90.35,90.35,0,0,0-90.36-90.35Z" transform="translate(-206.18 -294.69)"/><path d="M297.06,306.55,248.54,443.77h96Zm38.27,130.72h-38.8l19.61-55.46ZM297,326.25l15.77,45.6-23.13,65.41h-31.9Z" transform="translate(-206.18 -294.69)"/></svg>