<svg xmlns="http://www.w3.org/2000/svg" viewBox="0 0 124.73 191.55"><defs><style>.cls-1{fill:#fff;}</style></defs><title>blanc-micro</title><g id="Calque_2" data-name="Calque 2"><g id="Calque_3" data-name="Calque 3"><path class="cls-1" d="M101.65,67.24c0,10.8.07,21.6,0,32.4a36.29,36.29,0,0,1-34.08,36c-5.81.33-11.58.43-17.27-1a36.28,36.28,0,0,1-26.85-30.36,42.63,42.63,0,0,1-.32-5.14q0-31.32,0-62.63A35.38,35.38,0,0,1,31,13.62,34.94,34.94,0,0,1,57.75.15,65.83,65.83,0,0,1,70.9.51c13.72,2.25,23.18,10.09,28.35,23,2.28,5.68,2.48,11.67,2.44,17.69-.05,8.68,0,17.36,0,26ZM48.53,7.39c-1.85,1-3.39,1.72-4.85,2.59-8,4.77-13.21,11.56-14.25,20.89-.67,6-.47,12.12-.65,18.19,0,.73.46.81,1,.81,1.8,0,3.6,0,5.4,0,4,0,7.92,0,11.88.05a2.76,2.76,0,0,1,2.72,3.51c-.35,1.31-1.41,2-3.16,2-5.48,0-11,0-16.44,0H28.86V71.75H40.71c2.12,0,4.24,0,6.36,0a2.75,2.75,0,0,1,2.8,2.58,2.68,2.68,0,0,1-2.36,3,8.35,8.35,0,0,1-1.66.15H30.13c-.42,0-.85,0-1.28.06v16.1H32c4.92,0,9.84,0,14.76,0a2.86,2.86,0,1,1,.05,5.71c-.28,0-.56,0-.84,0H28.74c0,.68,0,1.2,0,1.72a30.79,30.79,0,0,0,22.73,28c5.51,1.4,11.12,1.19,16.69.74A30,30,0,0,0,95.31,105.9c.45-2.11.52-4.3.78-6.55H94.45c-5.08,0-10.16,0-15.24,0a9.84,9.84,0,0,1-2.7-.41,2.32,2.32,0,0,1-1.73-2.45,2.71,2.71,0,0,1,1.91-2.62,6.41,6.41,0,0,1,1.77-.22c5.36,0,10.72,0,16.08,0,.42,0,.84,0,1.26-.06V77.47H94.4c-5.24,0-10.48,0-15.72,0a7,7,0,0,1-2-.27,2.64,2.64,0,0,1-1.89-2.63,2.5,2.5,0,0,1,2-2.55,7,7,0,0,1,1.89-.24c5.28,0,10.56,0,15.84,0h1.32V55.47H94.36L78,55.43c-1.79,0-2.87-.73-3.2-2.12-.44-1.87.91-3.42,3.1-3.43,5.32,0,10.64,0,16,0h2v-1.4c0-4,0-8.08,0-12.12-.06-10.45-4.39-18.76-12.72-25a68.79,68.79,0,0,0-6.76-4l-.32.31q0,.7,0,1.41c0,4.52,0,9,0,13.56,0,2-1.19,3.33-2.86,3.3s-2.75-1.29-2.76-3.27c0-5.16,0-10.32,0-15.48,0-.42,0-.83,0-1.25H54.21V7.38q0,6.66,0,13.32c0,.92,0,1.84-.06,2.76A2.75,2.75,0,0,1,51.44,26a2.71,2.71,0,0,1-2.78-2.33A8.79,8.79,0,0,1,48.53,22c0-2.84,0-5.68,0-8.52C48.53,11.58,48.53,9.67,48.53,7.39Z"/><path class="cls-1" d="M65.29,159v27H89.36c.44,0,.88,0,1.32,0a2.84,2.84,0,0,1,2.78,2.87,2.8,2.8,0,0,1-2.87,2.65c-2.28,0-4.56,0-6.84,0H35.27a10.46,10.46,0,0,1-1.68-.07,2.76,2.76,0,0,1,.07-5.46,11.87,11.87,0,0,1,1.68-.07h24V158.87c-1.86-.23-3.75-.44-5.63-.7A62.26,62.26,0,0,1,1.5,109.89,68.49,68.49,0,0,1,.11,97.05C-.09,87.78,0,78.49.05,69.22a13.78,13.78,0,0,1,.08-1.55A2.74,2.74,0,0,1,3,65a2.89,2.89,0,0,1,2.69,2.85c0,3.32,0,6.64,0,10C5.76,85.92,5.54,94,6,102.07A51.53,51.53,0,0,0,17.7,131.34c9.4,11.81,21.51,19.07,36.49,21.2,16.56,2.35,31.43-1.9,44.32-12.5a54.12,54.12,0,0,0,19.9-36.28,86.63,86.63,0,0,0,.54-9.93c.07-8.28,0-16.56,0-24.83,0-.32,0-.64,0-1a3,3,0,0,1,2.82-3,2.93,2.93,0,0,1,2.88,3.06c.05,2.4.05,4.8,0,7.2q0,10.8,0,21.6A62.34,62.34,0,0,1,75,157.45C71.84,158.09,68.62,158.47,65.29,159Z"/></g></g></svg>