<svg xmlns="http://www.w3.org/2000/svg" viewBox="0 0 195.9 198.2"><defs><style>.cls-1{fill:#fff;}</style></defs><title>blanc-conference</title><g id="Calque_2" data-name="Calque 2"><g id="Calque_3" data-name="Calque 3"><path class="cls-1" d="M135.1,87.19H60.85c.21,2.86.41,5.64.62,8.42q1,13.57,2.1,27.13,1.14,14.7,2.3,29.41c.41,5.3.84,10.6,1.23,15.9a3.1,3.1,0,1,1-6.18.45q-1.23-15.9-2.44-31.8-1.26-16.32-2.55-32.63-.62-8-1.23-16c0-.27,0-.54-.08-.93H40.07c-2.22,0-3.64-1.2-3.65-3.08s1.42-3.12,3.64-3.12H94.8c0-.53.06-1,.06-1.44q0-8.4,0-16.8c0-.36,0-.72,0-1.08a3.14,3.14,0,0,1,3.11-3,3.07,3.07,0,0,1,3,3.22c0,5.6,0,11.2,0,16.8,0,.71,0,1.43,0,2.34h54.26a11.15,11.15,0,0,1,1.32,0,3.16,3.16,0,0,1,2.9,3.24,3.12,3.12,0,0,1-3.2,2.92c-4.52,0-9,0-13.56,0H141.3c-.24,3-.48,5.93-.71,8.87q-1,13.45-2.08,26.9-1,13.15-2,26.3c-.49,6.42-1,12.83-1.49,19.25a3.1,3.1,0,1,1-6.16-.44c.56-7.57,1.16-15.14,1.75-22.71q.91-11.77,1.83-23.55,1-13.27,2.05-26.54C134.68,92.56,134.88,89.93,135.1,87.19Z"/><path class="cls-1" d="M98,40.36A30.28,30.28,0,0,1,128,69a11.44,11.44,0,0,1,.07,1.55,3.09,3.09,0,1,1-6.18-.19,23,23,0,0,0-6-15.63c-6.73-7.31-15.12-9.84-24.61-7S76,57.28,74.33,67.18a28,28,0,0,0-.26,3.22,3.1,3.1,0,1,1-6.18-.12A30.16,30.16,0,0,1,92.15,41.07C94.06,40.71,96,40.59,98,40.36Z"/><path class="cls-1" d="M98,165a30.17,30.17,0,0,1,30,28.48,13.54,13.54,0,0,1,.07,1.55,3.19,3.19,0,0,1-3.11,3.18,3.15,3.15,0,0,1-3.07-3.3A23.91,23.91,0,0,0,74.41,191a38.21,38.21,0,0,0-.33,3.94,3.1,3.1,0,1,1-6.18-.17c-.06-14.58,11.46-27.68,25.93-29.47C95.21,165.17,96.61,165.11,98,165Z"/><path class="cls-1" d="M31.56,165.08c14.14,0,27.12,11.91,28.44,27.47.06.76.15,1.51.14,2.27a3.11,3.11,0,1,1-6.19,0A23.88,23.88,0,0,0,6.4,191.92c-.12.95-.17,1.91-.2,2.86-.06,2-1.33,3.42-3.11,3.41A3.15,3.15,0,0,1,0,194.77c.45-11.55,5.69-20.27,15.69-26C20.1,166.2,24.93,165,31.56,165.08Z"/><path class="cls-1" d="M165.95,165a30.18,30.18,0,0,1,30,29.86,3.12,3.12,0,0,1-2.64,3.33,3.07,3.07,0,0,1-3.29-2,5,5,0,0,1-.22-1.53A23.9,23.9,0,0,0,142.32,191a30.86,30.86,0,0,0-.32,3.82,3.25,3.25,0,0,1-3.13,3.4,3.18,3.18,0,0,1-3.08-3.44c-.1-12.13,8.3-23.92,20-27.94a36.6,36.6,0,0,1,5.32-1.37C162.67,165.15,164.32,165.12,165.95,165Z"/><path class="cls-1" d="M182.42,141.27a16.58,16.58,0,1,1-16.17-16.71A16.63,16.63,0,0,1,182.42,141.27Zm-16.62-10.51a10.4,10.4,0,0,0,.11,20.8,10.4,10.4,0,1,0-.11-20.8Z"/><path class="cls-1" d="M114.55,16.57a16.6,16.6,0,1,1-33.2,0,16.6,16.6,0,0,1,33.2,0ZM98,6.2a10.4,10.4,0,1,0,10.36,10.4A10.38,10.38,0,0,0,98,6.2Z"/><path class="cls-1" d="M30.06,157.72a16.58,16.58,0,1,1,16.56-16.55A16.62,16.62,0,0,1,30.06,157.72Zm0-27a10.4,10.4,0,1,0,10.35,10.5A10.34,10.34,0,0,0,30.11,130.76Z"/><path class="cls-1" d="M114.55,141.15A16.6,16.6,0,1,1,98,124.56,16.68,16.68,0,0,1,114.55,141.15Zm-16.18,10.4a10.4,10.4,0,1,0-10.8-9.7A10.46,10.46,0,0,0,98.37,151.55Z"/></g></g></svg>