<svg xmlns="http://www.w3.org/2000/svg" viewBox="0 0 215.77 381.7"><defs><style>.cls-1{fill:#fff;}</style></defs><title>FLECHE-INTERVEIW</title><g id="Calque_2" data-name="Calque 2"><g id="Calque_1-2" data-name="Calque 1"><path class="cls-1" d="M166,186.73c-1.58,1.39-2.77,2.33-3.83,3.38q-77.53,77.5-155,155C3,349.27.06,354,0,360c-.08,9.19,4.51,15.74,12.58,19.63,7.88,3.8,15.23,2.09,21.83-3.38.7-.58,1.34-1.25,2-1.9q86.09-86.08,172.18-172.15c6.33-6.32,9.06-13.7,5.81-22.23a28.57,28.57,0,0,0-6.62-9.45Q126,88.51,44,6.66C38.32,1,31.58-1.47,23.7.89S10.68,8.6,8.77,16.57c-1.72,7.17.48,13.48,5.5,18.82.86.91,1.76,1.78,2.64,2.66Q90.1,111.23,163.29,184.4C164,185.1,164.8,185.69,166,186.73Z"/></g></g></svg>