<svg xmlns="http://www.w3.org/2000/svg" viewBox="0 0 204.72 188.6"><defs><style>.cls-1{fill:#fff;}</style></defs><title>blanc-turntable</title><g id="Calque_2" data-name="Calque 2"><g id="Calque_3" data-name="Calque 3"><path class="cls-1" d="M26.24,164.88H3.6c-2.64,0-3.6-1-3.6-3.63Q0,82.42,0,3.59C0,.91.91,0,3.6,0H201.09c2.63,0,3.63,1,3.63,3.61q0,78.77,0,157.54c0,2.75-1,3.73-3.78,3.73H178.4v1.4q0,9.48,0,19c0,2.35-1,3.36-3.34,3.36H150c-2.35,0-3.34-1-3.34-3.35q0-9.48,0-19v-1.35h-32.8c0,.41,0,.83,0,1.25q0,5.64,0,11.28c0,2.17-1.05,3.2-3.25,3.2H94c-2.15,0-3.23-1.08-3.23-3.26,0-4.12,0-8.24,0-12.45H58.08v1.31q0,9.42,0,18.84c0,2.48-1,3.48-3.5,3.48h-25c-2.32,0-3.37-1-3.38-3.35q0-9.48,0-19ZM5.63,5.59V159.25H199V5.59ZM31.83,183H52.5V164.95H31.83Zm141,0V164.95H152.27V183Zm-64.57-7.93V165H96.4V175.1Z"/><path class="cls-1" d="M151.72,82.44a69.28,69.28,0,1,1-138.57-.58c.17-38.64,32.35-69.53,70.76-68.73A69.49,69.49,0,0,1,151.72,82.44Zm-5.52,0c0-34.92-28.56-63.58-63.22-63.78A63.77,63.77,0,1,0,146.2,82.42Z"/><path class="cls-1" d="M171.88,19v1.51c0,21.92-.09,43.84.05,65.75a43.51,43.51,0,0,1-3.46,17.95c-2.19,5.05-4.11,10.22-6.14,15.34-.13.33-.23.68-.4,1.16l3.11,1.24a2.85,2.85,0,0,1,1.78,4.13q-4.61,11.64-9.22,23.27c-.91,2.28-2.16,2.81-4.43,1.91l-11-4.37c-2.25-.9-2.79-2.17-1.9-4.44q4.58-11.58,9.18-23.16c.83-2.09,2.2-2.67,4.3-1.84l3,1.2,2.44-6.13c1.88-4.75,3.92-9.45,5.59-14.27a24.88,24.88,0,0,0,1.49-7.83c.11-23.36.07-46.71.07-70.07V18.95a14.67,14.67,0,0,0-6.12,2.23,16.91,16.91,0,0,0-3.06,26.39c.28.28.58.55.84.85a2.74,2.74,0,0,1,0,3.71,2.62,2.62,0,0,1-3.77.25,23.48,23.48,0,0,1-2.94-3.14A22.44,22.44,0,1,1,191.1,31.29c1.52,8.08-.87,15-6.71,20.73-1.35,1.32-3,1.36-4.14.17s-1-2.78.31-4.12c6.29-6.24,7.26-15.15,2.41-22.16C180.41,22.2,175.91,19.36,171.88,19ZM160.8,126.21l-7.07-2.8-7.58,19.13,7.07,2.78Z"/><path class="cls-1" d="M181.6,138.76c-3.44-.58-4.33-1.21-4.32-2.94s1-2.52,4.32-2.94v-1.36q0-10.31,0-20.62a12.73,12.73,0,0,1,.07-1.55,2.7,2.7,0,0,1,2.69-2.54,2.78,2.78,0,0,1,2.76,2.34,6.28,6.28,0,0,1,.07,1.19q0,10.61,0,21.22v1.3l.23-.27a26.42,26.42,0,0,1,3.5,1.63,2.33,2.33,0,0,1,.59,1.73c0,1.71-1.08,2.38-4.32,2.76v1.49c0,2.76,0,5.51,0,8.27,0,2-1.1,3.22-2.77,3.24s-2.78-1.25-2.81-3.2c0-2.76,0-5.51,0-8.27C181.6,139.77,181.6,139.29,181.6,138.76Z"/><path class="cls-1" d="M52.56,82.43a29.89,29.89,0,1,1,29.51,29.89C65.91,112.31,52.56,98.79,52.56,82.43Zm5.52,0A24.36,24.36,0,1,0,82.21,58.08,24.35,24.35,0,0,0,58.08,82.45Z"/><path class="cls-1" d="M26.24,79.82c.91-14.5,6.33-27,16.65-37.21A54.78,54.78,0,0,1,82.15,26.29a2.76,2.76,0,0,1,3,2.69,2.85,2.85,0,0,1-3,2.82h-.36A45.56,45.56,0,0,0,67.61,34Q37.67,44.27,32.28,75.49a59,59,0,0,0-.51,6.81,2.76,2.76,0,1,1-5.52,0C26.21,81.5,26.24,80.66,26.24,79.82Z"/><path class="cls-1" d="M84.43,138.6c-.53,0-1.21,0-1.89,0a2.79,2.79,0,1,1,0-5.57c1.71-.12,3.44-.08,5.14-.28,15.42-1.77,27.61-9.06,36.5-21.74A49,49,0,0,0,133,82.75a2.86,2.86,0,0,1,2.19-3,2.7,2.7,0,0,1,3.11,1.66,4.26,4.26,0,0,1,.21,1.52,54.88,54.88,0,0,1-15.7,38.42,55.11,55.11,0,0,1-33.49,16.85C87.78,138.38,86.17,138.45,84.43,138.6Z"/><path class="cls-1" d="M84.5,125.47c-.72,0-1.44,0-2.15,0a2.76,2.76,0,0,1-2.66-2.84,2.66,2.66,0,0,1,2.8-2.65,37.14,37.14,0,0,0,24.3-9.07,36.68,36.68,0,0,0,13.06-26.43c0-.64.05-1.28.08-1.92a2.75,2.75,0,0,1,2.74-2.88,2.72,2.72,0,0,1,2.77,3,41.17,41.17,0,0,1-6.88,23.09C111.06,117,100.49,123.52,87,125.23c-.83.11-1.67.12-2.51.18Z"/><path class="cls-1" d="M80.05,39.36c.72,0,1.44,0,2.16,0a2.87,2.87,0,0,1,3,2.8,2.82,2.82,0,0,1-3,2.75A37.61,37.61,0,0,0,44.93,82c-.06,2.43-2,3.88-4,2.9a2.78,2.78,0,0,1-1.58-2.74,41.43,41.43,0,0,1,6.67-22.68c7.4-11.39,17.89-18,31.36-19.82.87-.12,1.75-.15,2.63-.22Z"/><path class="cls-1" d="M86.24,82.4a3.8,3.8,0,0,1-3.87,3.87,3.89,3.89,0,0,1-3.81-3.84,4,4,0,0,1,3.9-3.9A3.87,3.87,0,0,1,86.24,82.4Z"/></g></g></svg>