<svg xmlns="http://www.w3.org/2000/svg" viewBox="0 0 181.01 193.3"><title>casque</title><g id="Calque_2" data-name="Calque 2"><g id="Calque_1-2" data-name="Calque 1"><path d="M155.82,74.8a95,95,0,0,1,9.27,2.29A24.3,24.3,0,0,1,181,99.84c0,5.54.3,11.15-.44,16.6-1.52,11.28-11.42,19.92-22.87,20.49-2,.1-2.05,1.2-2.15,2.66-.62,9.15-3,17.73-8.55,25.18-6.8,9.15-16.21,13.86-27.26,15.6a2.13,2.13,0,0,0-2,1.7c-2.46,7.35-7.83,11.17-15.61,11.19-3.85,0-7.71.08-11.55,0a15.23,15.23,0,0,1-14.94-12.5,15,15,0,0,1,9.42-17,20.73,20.73,0,0,1,6.31-1.06c3.52-.17,7-.05,10.57,0,8,0,13.17,3.66,15.85,11.16.13.36.27.71.4,1,21-2.56,31.5-18.84,31.78-37.81h-8.15c-2.91,0-3.82-.93-3.82-3.88q0-27,0-54.05c0-2.84.86-3.74,3.72-3.8s5.46,0,8.16,0c2.37-26.8-7.26-52.72-33.73-64.67a50.83,50.83,0,0,0-19.89-4.5C88.38,6,80.53,5.7,72.88,7.88c-20.14,5.75-32.9,19-39.22,38.73-3,9.29-2.92,18.86-2.64,28.7,2.8,0,5.52,0,8.25,0s3.77,1,3.77,3.75q0,27.12,0,54.25c0,2.84-.91,3.78-3.72,3.78-5.29,0-10.58.13-15.86-.08C10.16,136.5-.25,124.76,0,112.21c.11-5.34-.26-10.75.43-16C1.89,85,11.54,76.35,22.74,75.47c.77-.06,1.53-.19,2.56-.31,0-2.68,0-5.27,0-7.85A69.53,69.53,0,0,1,27.77,47C34.9,23,50,7,74.81,1.84,91.13-1.53,107.49-.64,122.6,7.56,140,17,150.15,31.9,154.21,51c1.11,5.22,1.19,10.67,1.58,16C156,69.69,155.82,72.37,155.82,74.8ZM37.34,131.14V81c-4.32,0-8.5,0-12.67,0-8.83.08-17,6.19-18.31,14.93a89.78,89.78,0,0,0-.4,18.9c.48,8.06,7.72,15.46,15.79,16.25C26.85,131.55,32,131.14,37.34,131.14Zm106.43.34c4.47,0,8.77.16,13.05,0,9.47-.42,17.08-7.09,18.28-16.46.63-4.88.37-9.89.37-14.84A19.29,19.29,0,0,0,163,82.2c-6.25-2.33-12.74-.8-19.21-1.32Zm-47,56.08h0c2.15,0,4.3,0,6.45,0a9.62,9.62,0,0,0-.18-19.24c-4.24,0-8.47-.05-12.71,0a9.62,9.62,0,0,0-.21,19.22C92.35,187.62,94.57,187.56,96.79,187.56Z"/></g></g></svg>