<svg xmlns="http://www.w3.org/2000/svg" viewBox="0 0 162.77 186.37"><title>ecouteurs</title><g id="Calque_2" data-name="Calque 2"><g id="Calque_1-2" data-name="Calque 1"><path d="M109.09,166.94h41.55a5,5,0,0,1,1.39.14,2.54,2.54,0,0,1,1.78,2.85,2.63,2.63,0,0,1-2.5,2.27c-.23,0-.47,0-.71,0H95.5a8.5,8.5,0,0,1-8.81-8.8c0-4.26,0-8.51,0-12.77a9.25,9.25,0,1,0-18.5,0c0,6.19,0,12.37-.06,18.56a17.11,17.11,0,0,1-1.58,7.45,2.62,2.62,0,0,1-4.39.64,2.39,2.39,0,0,1-.43-2.7,14.58,14.58,0,0,0,1.16-6.31q0-8.71,0-17.43a14.52,14.52,0,0,1,27.39-7A15.61,15.61,0,0,1,92,150.89c0,4.21,0,8.42,0,12.63a3.17,3.17,0,0,0,3.25,3.41c2.75,0,5.5,0,8.26,0a3.23,3.23,0,0,0,.34,0c0-.26,0-.51,0-.76q0-22.69.06-45.37a.94.94,0,0,0-.77-1.08,10.88,10.88,0,0,1-7.61-10.5c0-24-.14-48,.05-72,.12-14.31,6.79-25.09,19.06-32.34A36,36,0,0,1,133.44,0a14.57,14.57,0,0,1,13.06,9,15.66,15.66,0,0,1,1.08,5.78q0,22.37,0,44.74A14.31,14.31,0,0,1,135.1,74.15,31.47,31.47,0,0,1,128,74a35.53,35.53,0,0,1-10.61-2.93V72q0,18.59,0,37.19A10.88,10.88,0,0,1,110,119.64a1,1,0,0,0-.81,1.13q0,20.46-.06,40.93C109.08,163.41,109.09,165.12,109.09,166.94Zm17.15-98.51V6a31.88,31.88,0,0,0,0,62.44Zm5.29.63c.54,0,1,0,1.47,0a9.27,9.27,0,0,0,9.36-9.55c0-14.91,0-29.82,0-44.74a9.33,9.33,0,0,0-10-9.53c-.67,0-.86.22-.86.89q0,31,0,62.09Zm-30.61-12.2-.14.05v.82q0,25.47,0,50.93c0,.24,0,.47,0,.71a5.7,5.7,0,1,0,11.38-.42q0-20.14,0-40.28a1.1,1.1,0,0,0-.42-.78,38.82,38.82,0,0,1-8.83-8.44Z"/><path d="M34.27,145.56q0-12.46,0-24.91a.91.91,0,0,0-.71-1.06,10.88,10.88,0,0,1-7.35-10.4q0-17.78,0-35.57a1.06,1.06,0,0,0-.86-1.23A36.41,36.41,0,0,1,2.88,51.45,35.86,35.86,0,0,1,.26,33,36.48,36.48,0,0,1,9.2,12.78,35.88,35.88,0,0,1,29.69.8,36.11,36.11,0,0,1,60.2,8.07,35.57,35.57,0,0,1,73.56,29.75a36.28,36.28,0,0,1-7.29,30.52A36,36,0,0,1,48.79,72.46a.84.84,0,0,0-.71,1q0,17.92,0,35.85a10.83,10.83,0,0,1-7.67,10.43,1,1,0,0,0-.9,1.19c0,8,0,15.95,0,23.92q0,12.21,0,24.42A11.74,11.74,0,0,0,55.2,180.41a2.61,2.61,0,0,1,3.61,2.87,2.45,2.45,0,0,1-1.74,2,16.69,16.69,0,0,1-15.41-1.93,16.27,16.27,0,0,1-7-10.27,18,18,0,0,1-.39-3.78c0-7.93,0-15.85,0-23.78ZM69.09,37.21A31.9,31.9,0,1,0,36.83,69.06,31.9,31.9,0,0,0,69.09,37.21ZM31.55,73.92c0,.25,0,.36,0,.48q0,17.46,0,34.93a5.32,5.32,0,0,0,1.83,4.13,5.69,5.69,0,0,0,9.53-4.33q0-17.25,0-34.51c0-.21,0-.41,0-.69A39.48,39.48,0,0,1,31.55,73.92Z"/><path d="M119.91,186.32H86.19A2.61,2.61,0,0,1,85,181.38a3.54,3.54,0,0,1,1.43-.27q33.12,0,66.24,0a4.45,4.45,0,0,0,4.34-2.45,6.88,6.88,0,0,0,.51-2.16,2.64,2.64,0,1,1,5.26.31,9.68,9.68,0,0,1-9.57,9.52Z"/></g></g></svg>