<svg xmlns="http://www.w3.org/2000/svg" viewBox="0 0 313.25 504.07"><defs><style>.cls-1,.cls-3,.cls-4{fill:none;}.cls-1,.cls-3,.cls-4,.cls-5{stroke:#c4b798;stroke-miterlimit:10;}.cls-2{fill:#c4b798;}.cls-3,.cls-5{stroke-width:0.75px;}.cls-4{stroke-width:0.5px;}.cls-5{fill:#fff;}</style></defs><title>casque</title><g id="Calque_2" data-name="Calque 2"><g id="Calque_2-2" data-name="Calque 2"><path class="cls-1" d="M186.91,189.35c8.16,7.74,21.28,11.41,37,9a39.09,39.09,0,0,0,0-4s-22,2-31-8-40.63-71.64-61-83c-14.2-7.92,20.91,35.48,20.91,35.48Z"/><path class="cls-1" d="M159.41,85.85c7,.7,46,5,51,8s48,38,56,77-66,16-73,10-45-74-60-82S139.41,83.85,159.41,85.85Z"/><path class="cls-1" d="M279.41,237.85c3-8,3-91.21-19-141-28.05-63.54-52-85.25-78.22-94.79C177.44.32,148.52.51,143.48.81c-2,.12,13.32,5,12,5.38C136,11.5,115.31,36.34,108.77,49.67c-4.34,8.84-41.36,75.17-41.36,184.18,0,17-32,9-32,9-12-25,10-142,26-176,14.28-30.35,44.8-81.59,92-62,48.77,20.24,106,155,85,232Z"/><path class="cls-1" d="M84.41,207.85c-10-1.25-29,1-33-11s1-37,16-60,26-42,46-40,29,3,32,5,21,20,18,25-16,22-19,29-13,21-18,31S108.41,210.85,84.41,207.85Z"/><rect class="cls-1" x="254.41" y="205.85" width="21" height="9" rx="4.5" ry="4.5"/><rect class="cls-1" x="253.03" y="193.85" width="21" height="9" rx="4.5" ry="4.5"/><path class="cls-1" d="M252.53,170.6c6.29-.17,14.12-.19,15.88-.08,1.33.08,2.59,6.48,1.17,6.5-5.25.08-11.92.33-15.92,0C251.65,176.78,250.79,170.64,252.53,170.6Z"/><path class="cls-1" d="M256.28,146.22c6.25-.12,10.63-.25,10.5,3.75-.14,4.39-3.87,3.88-9.62,4-5,.11-12,1-12-3.5C245.16,145.72,251.53,146.32,256.28,146.22Z"/><path class="cls-1" d="M254.28,135.22c6.25-.12,10.63-.25,10.5,3.75-.14,4.39-3.87,3.88-9.63,4-5,.11-12,1-12-3.5C243.16,134.72,249.53,135.32,254.28,135.22Z"/><path class="cls-1" d="M251.28,124.22c6.25-.12,10.63-.25,10.5,3.75-.14,4.39-3.87,3.88-9.63,4-5,.11-12,1-12-3.5C240.16,123.72,246.53,124.32,251.28,124.22Z"/><path class="cls-1" d="M239.28,114.47c-2.68.38,0,6.13,2.88,6s16.88.88,16.13-.5-1.62-5.27-4.25-5.37C247.78,114.35,241.91,114.1,239.28,114.47Z"/><path class="cls-1" d="M236.28,103.47c-2.68.38,0,6.13,2.88,6s16.88.88,16.13-.5-1.62-5.27-4.25-5.37C244.78,103.35,238.91,103.1,236.28,103.47Z"/><path class="cls-1" d="M232.28,93.47c-2.68.38,0,6.13,2.88,6s16.88.88,16.13-.5S249.66,93.7,247,93.6C240.78,93.35,234.91,93.1,232.28,93.47Z"/><path class="cls-1" d="M227.28,83.47c-2.68.38,0,6.13,2.88,6s16.88.88,16.13-.5S244.66,83.7,242,83.6C235.78,83.35,229.91,83.1,227.28,83.47Z"/><path class="cls-1" d="M224.28,74.47c-2.68.38,0,6.13,2.88,6s16.88.88,16.13-.5S241.66,74.7,239,74.6C232.78,74.35,226.91,74.1,224.28,74.47Z"/><path class="cls-1" d="M219.28,65.47c-2.68.38,0,6.13,2.88,6s16.88.88,16.13-.5S236.66,65.7,234,65.6C227.78,65.35,221.91,65.1,219.28,65.47Z"/><path class="cls-1" d="M215.28,57.42c-2.68.27,0,4.35,2.88,4.26s16.88.62,16.13-.36-1.62-3.74-4.25-3.82C223.78,57.33,217.91,57.15,215.28,57.42Z"/><path class="cls-1" d="M210.28,49.48c-2.68.26,0,4.17,2.88,4.08s16.88.6,16.13-.34-1.62-3.59-4.25-3.66C218.78,49.39,212.91,49.22,210.28,49.48Z"/><path class="cls-1" d="M205.28,42c-2.68.23,0,3.69,2.88,3.62s16.88.53,16.13-.3S222.66,42.1,220,42C213.78,41.89,207.91,41.74,205.28,42Z"/><path class="cls-1" d="M200.28,35.57c-2.68.19,0,3.1,2.88,3s16.88.44,16.13-.25-1.62-2.67-4.25-2.72C208.78,35.5,202.91,35.38,200.28,35.57Z"/><path class="cls-2" d="M189.91,19.51c3,0,6.09-.27,9.14-.43.38,0,.77,0,1.15,0,0,0,.1,0,0,0a.32.32,0,0,0-.1.13.2.2,0,0,0,0,.11v0s-.05-.05-.11-.09a3.77,3.77,0,0,0-.43-.29,9.57,9.57,0,0,0-2-.88,3.79,3.79,0,0,0-1-.19c-.36,0-.74,0-1.11,0-.75,0-1.51,0-2.27,0-3,0-6.08,0-9.14,0l-.58,0-.44,0s0-.09,0-.09,0,0,0,.07a1.56,1.56,0,0,0,.15.2c.12.14.25.27.39.4s.55.52.82.81a1.09,1.09,0,0,0,.4.34,2.09,2.09,0,0,0,.53.14C186.86,19.75,188.39,19.5,189.91,19.51Zm0,0c-1.53,0-3,.29-4.57.21a2.74,2.74,0,0,1-.58-.11,1.29,1.29,0,0,1-.49-.35c-.28-.25-.58-.48-.87-.73s-.3-.25-.44-.39a1.9,1.9,0,0,1-.21-.24.7.7,0,0,1-.1-.18.31.31,0,0,1,.11-.34.69.69,0,0,1,.41-.09h.27l.56,0c3-.2,6.08-.45,9.15-.45.77,0,1.53,0,2.31,0,.39,0,.77,0,1.17.1a4.74,4.74,0,0,1,1.2.29,9.53,9.53,0,0,1,2.1,1.12,4.33,4.33,0,0,1,.48.4,1,1,0,0,1,.25.35l0,.08a.43.43,0,0,1,0,.18.32.32,0,0,1-.19.22c-.19.08-.2,0-.29,0-.38,0-.75,0-1.13-.06C196,19.48,193,19.47,189.91,19.51Z"/><path class="cls-1" d="M191.91,19.51"/><path class="cls-2" d="M195.91,25.49c3.08,0,6.14-.29,9.22-.45l.58,0h.53s-.12,0-.15.17,0,.06,0,.07,0,0,0,0l-.15-.15a4.26,4.26,0,0,0-.42-.32,9.1,9.1,0,0,0-2-1,3.39,3.39,0,0,0-1-.22c-.36,0-.74,0-1.12-.06-.76,0-1.52,0-2.28,0-3.06,0-6.13,0-9.22,0l-.59,0-.26,0H189s0-.07,0-.07a1.11,1.11,0,0,0,.23.37c.11.14.24.29.37.43s.53.56.78.86.21.31.38.38a1.71,1.71,0,0,0,.52.16A40.6,40.6,0,0,0,195.91,25.49Zm0,0c-1.54,0-3.06.32-4.61.23a2.18,2.18,0,0,1-.58-.14,1.35,1.35,0,0,1-.47-.39c-.26-.27-.55-.52-.84-.78s-.28-.26-.42-.41-.29-.24-.36-.6a.33.33,0,0,1,.17-.31A.62.62,0,0,1,189,23h.31l.56,0c3.06-.2,6.13-.48,9.22-.48.77,0,1.55,0,2.33.05.39,0,.78.05,1.18.11a4.34,4.34,0,0,1,1.22.32,9.15,9.15,0,0,1,2.07,1.23,4.86,4.86,0,0,1,.46.42,1.75,1.75,0,0,1,.22.28.62.62,0,0,1,.06.13.34.34,0,0,1,0,.2.39.39,0,0,1-.35.34l-1.2-.06C202.06,25.44,199,25.45,195.91,25.49Z"/><path class="cls-2" d="M201.91,31.44c3.08,0,6.14-.31,9.22-.41h1.11s-.09,0-.13.15,0,0,0,.05h0a1.25,1.25,0,0,0-.15-.16,4.23,4.23,0,0,0-.42-.33,8.82,8.82,0,0,0-2-1,3.51,3.51,0,0,0-1-.23c-.37,0-.75,0-1.12-.06-.76,0-1.52,0-2.29,0-3.07.07-6.12.32-9.21.33l-.61,0h-.24s0,0,.05,0,.12-.07.14-.15,0-.1,0-.16,0,0,0,0a2.35,2.35,0,0,0,.14.2c.11.14.23.28.36.42s.51.57.77.89c.06.07.14.19.18.23a.32.32,0,0,0,.12.11,1.58,1.58,0,0,0,.45.16A31.34,31.34,0,0,0,201.91,31.44Zm0,.1c-1.54,0-3,.42-4.64.37a2.15,2.15,0,0,1-.65-.14,1,1,0,0,1-.34-.23l-.2-.2c-.26-.25-.56-.49-.85-.76s-.29-.27-.44-.42a3.26,3.26,0,0,1-.22-.25.89.89,0,0,1-.21-.51.52.52,0,0,1,.07-.29.66.66,0,0,1,.24-.24.88.88,0,0,1,.33-.09h.34l.55,0c3.05-.14,6.14-.17,9.23-.13.77,0,1.55,0,2.32.07.39,0,.78,0,1.18.1a4.23,4.23,0,0,1,1.19.31,9.41,9.41,0,0,1,2.07,1.17,4.75,4.75,0,0,1,.47.4,1.68,1.68,0,0,1,.22.27.57.57,0,0,1,.06.12.31.31,0,0,1,0,.19.37.37,0,0,1-.33.31l-1.19,0C208.07,31.51,205,31.45,201.91,31.54Z"/><path class="cls-2" d="M183.91,13.85c3,0,6-.19,9-.35l1.13-.06h.19l0,0a.24.24,0,0,0-.08.08.28.28,0,0,0,0,.21c.06.12,0,.06,0,.06a2.89,2.89,0,0,0-.44-.22,11.74,11.74,0,0,0-2.07-.62,10.59,10.59,0,0,0-2.14-.15c-.74,0-1.49,0-2.23,0-3,0-6,0-9-.11l-1.13,0c-.06,0-.21,0-.12,0s.05-.07,0-.12,0,0,0,0l.07.07a4.15,4.15,0,0,0,.43.33c.3.21.62.41.93.64a1.57,1.57,0,0,0,1,.33C180.91,14,182.42,13.84,183.91,13.85Zm0,0c-1.5,0-3,.2-4.49.18a1.86,1.86,0,0,1-1.11-.29c-.31-.19-.64-.37-1-.56a4.41,4.41,0,0,1-.49-.32,1,1,0,0,1-.13-.13.47.47,0,0,1-.07-.12.25.25,0,0,1,.06-.24c.24-.17.3-.09.42-.12l1.11,0c3-.18,6-.39,9-.39a21.6,21.6,0,0,1,4.57.32A11.28,11.28,0,0,1,194,13a3.28,3.28,0,0,1,.54.34.55.55,0,0,1,.19.26.36.36,0,0,1,0,.27.39.39,0,0,1-.1.11l-.06,0a.47.47,0,0,1-.17,0H194l-1.12,0C189.89,13.9,186.9,13.8,183.91,13.85Z"/><path class="cls-2" d="M178.91,9.81c2.94,0,5.87-.14,8.81-.28l1.1-.05.48,0a.29.29,0,0,0-.1,0s-.09,0-.13.27.09.18.09.21l.08.06h0l-.12,0-.26,0c-.71-.08-1.44-.12-2.17-.16-1.45,0-2.93,0-4.39,0-2.93,0-5.86-.12-8.79-.25l-1.1,0c-.16,0-.43,0-.47,0s.13-.09.09-.17a.16.16,0,0,0-.05-.11h0l0,0,.12,0,.26.07,1.07.27a4.71,4.71,0,0,0,1.07.13C176,9.84,177.44,9.8,178.91,9.81Zm0,0-4.4.11a5.92,5.92,0,0,1-1.12-.05l-1.08-.18-.28,0-.14,0-.08,0-.07,0,0,0a.21.21,0,0,1-.06-.12c0-.08.13-.22.11-.19a1.14,1.14,0,0,1,.36,0h.28l1.1,0c2.94-.13,5.89-.26,8.83-.25,1.47,0,2.93,0,4.41.1.74.08,1.47.2,2.21.34l.28.06.15,0,.1,0a.37.37,0,0,1,.14.09s0,0,.1.23-.15.27-.14.28a.38.38,0,0,1-.13.05,5.56,5.56,0,0,1-.62,0l-1.1,0C184.78,9.9,181.85,9.79,178.91,9.81Z"/><path class="cls-2" d="M170.91,5.81c2.94,0,5.87-.14,8.81-.28l1.1-.05.48,0a.29.29,0,0,0-.1,0s-.09,0-.13.27.09.18.09.21l.08.06h0l-.12,0-.26,0c-.71-.08-1.44-.12-2.17-.16-1.45,0-2.93,0-4.39,0-2.93,0-5.86-.12-8.79-.25l-1.1,0c-.16,0-.43,0-.47,0s.13-.09.09-.17a.16.16,0,0,0-.05-.11h0l0,0,.12,0,.26.07,1.07.27a4.71,4.71,0,0,0,1.07.13C168,5.84,169.44,5.8,170.91,5.81Zm0,0-4.4.11a5.92,5.92,0,0,1-1.12-.05l-1.08-.18-.28,0-.14,0-.08,0-.07,0,0,0a.21.21,0,0,1-.06-.12c0-.08.13-.22.11-.19a1.14,1.14,0,0,1,.36,0h.28l1.1,0c2.94-.13,5.89-.26,8.83-.25,1.47,0,2.93,0,4.41.1.74.08,1.47.2,2.21.34l.28.06.15,0,.1,0a.37.37,0,0,1,.14.09s0,0,.1.23-.15.27-.14.28a.38.38,0,0,1-.13.05,5.56,5.56,0,0,1-.62,0l-1.1,0C176.78,5.9,173.85,5.79,170.91,5.81Z"/><path class="cls-1" d="M253.53,182.6c6.29-.17,14.12-.19,15.88-.08,1.33.08,2.59,6.48,1.17,6.5-5.25.08-11.92.33-15.92,0C252.65,188.78,251.79,182.64,253.53,182.6Z"/><path class="cls-1" d="M249.53,158.6c6.29-.17,14.12-.19,15.88-.08,1.33.08,2.59,6.48,1.17,6.5-5.25.08-11.92.33-15.92,0C248.65,164.78,247.79,158.64,249.53,158.6Z"/><path class="cls-2" d="M271.5,457.7a133,133,0,0,0,23.66-27.94,114,114,0,0,0,14.23-33.61c2.79-11.85,3.6-24.27,1.36-36.24a71.76,71.76,0,0,0-5.54-17.29,64.35,64.35,0,0,0-10-15.16,66.89,66.89,0,0,0-30.39-19.35,86,86,0,0,0-36.25-2.8,111.47,111.47,0,0,0-35,10.57,133,133,0,0,0-53.86,48.35,115.15,115.15,0,0,0-14.32,33.47A86.71,86.71,0,0,0,124,433.84a70.65,70.65,0,0,0,5.53,17.26,62.84,62.84,0,0,0,23.81,26.77,71.18,71.18,0,0,0,16.51,7.51c11.61,3.62,24,4.26,36.13,2.86A113.8,113.8,0,0,0,241,478,133,133,0,0,0,271.5,457.7Zm.1.11a136.15,136.15,0,0,1-30.4,20.54,115.24,115.24,0,0,1-35.08,10.86,87.14,87.14,0,0,1-36.67-2.47,66,66,0,0,1-47-52.63,88.19,88.19,0,0,1,1.63-36.77,113.92,113.92,0,0,1,14.72-33.75,135.13,135.13,0,0,1,54.58-48.26,117.73,117.73,0,0,1,35.15-10.55,96.23,96.23,0,0,1,18.4-.64,79.94,79.94,0,0,1,18.15,3.16A65.43,65.43,0,0,1,312,359.67a86.86,86.86,0,0,1-1.72,36.69A115,115,0,0,1,295.49,430,136.23,136.23,0,0,1,271.6,457.81Z"/><rect class="cls-1" x="41.07" y="220.08" width="18.76" height="6.3" rx="2.94" ry="2.94"/><rect class="cls-1" x="41.07" y="209.08" width="18.76" height="6.88" rx="2.94" ry="2.94"/><rect class="cls-1" x="42.07" y="198.08" width="18.76" height="6.88" rx="2.94" ry="2.94"/><path class="cls-1" d="M56,115.07c3,.06,13.67,0,13.67,0a3,3,0,0,1,2.94,2.94v.24a3,3,0,0,1-2.94,2.94L54.6,121.1c-1.62,0-1.06-1.81-.84-3.25S54.39,115,56,115.07Z"/><path class="cls-1" d="M54,125.07c3,.06,13.67,0,13.67,0a3,3,0,0,1,2.94,2.94v.24a3,3,0,0,1-2.94,2.94L52.6,131.1c-1.62,0-1.06-1.81-.84-3.25S52.39,125,54,125.07Z"/><path class="cls-1" d="M52,135.07c3,.06,13.67,0,13.67,0a3,3,0,0,1,2.94,2.94v.24a3,3,0,0,1-2.94,2.94L50.6,141.1c-1.62,0-1.06-1.81-.84-3.25S50.39,135,52,135.07Z"/><path class="cls-1" d="M50,145.07c3,.06,13.67,0,13.67,0a3,3,0,0,1,2.94,2.94v.24a3,3,0,0,1-2.94,2.94L48.6,151.1c-1.62,0-1.06-1.81-.84-3.25S48.39,145,50,145.07Z"/><path class="cls-1" d="M59,105.07c3,.06,13.67,0,13.67,0a3,3,0,0,1,2.94,2.94v.24a3,3,0,0,1-2.94,2.94L57.6,111.1c-1.62,0-1.06-1.81-.84-3.25S57.39,105,59,105.07Z"/><path class="cls-1" d="M62.16,96.07c3.22.06,14.43,0,14.43,0a3,3,0,0,1,3.1,2.94v.24a3,3,0,0,1-3.1,2.94l-15.93-.13c-1.71,0-1.11-1.81-.89-3.25S60.44,96,62.16,96.07Z"/><path class="cls-1" d="M65.16,87.07c3.22.06,14.43,0,14.43,0a3,3,0,0,1,3.1,2.94v.24a3,3,0,0,1-3.1,2.94L63.66,93.1c-1.71,0-1.11-1.81-.89-3.25S63.44,87,65.16,87.07Z"/><path class="cls-1" d="M69.16,78.07c3.22.06,14.43,0,14.43,0a2.9,2.9,0,0,1,3.1,2.63V81a2.9,2.9,0,0,1-3.1,2.63l-15.93-.11c-1.71,0-1.11-1.62-.89-2.91S67.44,78,69.16,78.07Z"/><path class="cls-1" d="M55.73,204.05c-6.67-2.36-16.26-7.92-13.76-20.84s30.61-73.34,45.23-82.54A49.18,49.18,0,0,1,122.42,94c21.8,4,27.3,2.5,32.51,9.17S169.53,119,166.4,124.64s-18.55,26.89-21.88,32.72-25.65,44.12-34.66,46.78C100.06,207,80.53,212.81,55.73,204.05Z"/><path class="cls-1" d="M56.21,237c0-4.93,3.41-27.5,4.36-30.35s15.36,2.09,19,1.71S77.45,231.13,77.45,237,56.21,237,56.21,237Z"/><path class="cls-2" d="M67.4,207.85c-.28,2.53-.33,5.07-.47,7.61l-.3,7.62-.42-.46,3.87.12,1.94.06,1,0h.3s.12,0-.14,0a.4.4,0,0,0-.2.16s0,0,0,0h0c0-.08.06-.25.09-.39.46-2.49.78-5.09,1.15-7.65.18-1.28.36-2.57.6-3.85.12-.64.24-1.28.39-1.92a6.22,6.22,0,0,1,.29-1s0,0,0,0a1.34,1.34,0,0,0-.36-.15,9,9,0,0,0-1.86-.24c-.64,0-1.28-.06-1.93-.06C70,207.75,68.69,207.8,67.4,207.85Zm0,0c1.28-.2,2.57-.34,3.87-.44a14.88,14.88,0,0,1,4,.07,1.88,1.88,0,0,1,.54.21.78.78,0,0,1,.28.3.63.63,0,0,1,0,.47,5.57,5.57,0,0,0-.22.9c-.11.62-.2,1.26-.29,1.9l-.49,3.84c-.34,2.57-.59,5.13-1,7.73a4.3,4.3,0,0,1-.15.55l0,.1a.36.36,0,0,1,0,.07.6.6,0,0,1-.24.21c-.28.09-.21,0-.25.05H73l-1,0-1.95-.09-3.89-.18-.44,0,0-.44c.12-2.55.37-5.08.6-7.62.11-1.27.26-2.54.43-3.8S67.12,209.1,67.4,207.85Z"/><path class="cls-1" d="M69.51,271.46c7.15,0,16.23.6,17.57-1.19s7.15-13.55,8-15.49-4.91-7.45-8.34-8.19-40.21,0-43.48,0-7.45,2.38-7.74,4-.6,5.21.3,5.66S51.49,270.86,53.43,271,69.51,271.46,69.51,271.46Z"/><path class="cls-1" d="M37.94,246.74c0-.89-.15-11.76,5.81-11.47s5.66,11.91,5.51,16.53"/><path class="cls-1" d="M54.57,251.29c0-2.23.5-11.37-2.29-14.34-2.18-2.32-3.78-2.1-9.3-1.86"/><path class="cls-1" d="M78.26,234.3c1.09.14,3.28-.41,3.83.14s3.15,2.19,3,4.92S85,251.66,85,251.66l-39.7.27c.74-5.81-.8-9.67-2.29-9.67s-2.23,2.38-2.23,3.57"/><path class="cls-1" d="M52.74,282.54a9.14,9.14,0,0,1-6-.58c-2.14-1-19.41-15.14-20.19-17.66s-1.63-6.24-.46-7.6,5.31-6.18,8.42-7.35-1.16,3.11.19,6S49.63,270.31,52,270.89s7.41,1.45,16.14,1.26C68.3,274.67,52.74,282.54,52.74,282.54Z"/><path class="cls-1" d="M243.29,241.37c-3.24,2.65-5,7.37-6.19,13.27s-4.13,11.21-3.24,13.27-.88,6.78,2.65,9.44,24.77,1.47,28.31,1.47,12.09-10,13.86-11.21,5.06-13.87,5.6-15.92c1.47-5.6-.1-8-5.56-9.77S243.29,241.37,243.29,241.37Z"/><ellipse class="cls-1" cx="133.72" cy="491" rx="12.57" ry="3.95" transform="translate(-97.76 37.81) rotate(-11.82)"/><path class="cls-1" d="M191.89,490.24c-.25,1.23-2.46,12-2.46,12s-2.83,1.84-9.71,1.11-19.05-5.57-18.31-9.46c.49-2.58,2.46-9.71,2.46-9.71S174,489,191.89,490.24Z"/><path class="cls-2" d="M124.14,110.59c-4.77-.35-9.57-.9-14.32-.55-2.33.21-4.82.58-6.58,2l-4.84,5.27a192.33,192.33,0,0,0-17.85,22.42,168,168,0,0,0-23.92,51.85l1.75-7c.15-.58.29-1.17.45-1.74l.55-1.71,1.09-3.43c.38-1.14.71-2.29,1.14-3.41l1.3-3.36,1.3-3.36c.45-1.11,1-2.2,1.45-3.3a161.93,161.93,0,0,1,14-25.13,182.9,182.9,0,0,1,18.12-22.38l5-5.22c2-1.59,4.59-1.87,7-2A90,90,0,0,1,124.14,110.59Z"/><path class="cls-2" d="M235.28,222.91a74.24,74.24,0,0,0-2.09-16.21c-1.18-5.35-2.66-10.64-4.28-15.89-3.27-10.48-7.12-20.79-11.36-30.93q-3.19-7.6-6.74-15c-2.39-4.94-4.88-9.85-7.72-14.55a49.27,49.27,0,0,0-4.7-6.74,12.62,12.62,0,0,0-3.13-2.61,29.52,29.52,0,0,0-3.64-1.91,28.85,28.85,0,0,0-16.12-2.07,28.91,28.91,0,0,1,16.17,2,29.66,29.66,0,0,1,3.67,1.9,12.81,12.81,0,0,1,3.19,2.62,49.46,49.46,0,0,1,4.77,6.74c2.89,4.69,5.41,9.59,7.85,14.52s4.7,10,6.87,15c4.33,10.12,8.26,20.41,11.62,30.9,1.67,5.25,3.19,10.55,4.42,15.92a75.07,75.07,0,0,1,2.23,16.42Z"/><path class="cls-2" d="M257.28,224.91a74.24,74.24,0,0,0-2.09-16.21c-1.18-5.35-2.66-10.64-4.28-15.89-3.27-10.48-7.12-20.79-11.36-30.93q-3.19-7.6-6.74-15c-2.39-4.94-4.88-9.85-7.72-14.55a49.27,49.27,0,0,0-4.7-6.74,12.62,12.62,0,0,0-3.13-2.61,29.52,29.52,0,0,0-3.64-1.91,28.85,28.85,0,0,0-16.12-2.07,28.91,28.91,0,0,1,16.17,2,29.66,29.66,0,0,1,3.67,1.9,12.81,12.81,0,0,1,3.19,2.62,49.46,49.46,0,0,1,4.77,6.74c2.89,4.69,5.41,9.59,7.85,14.52s4.7,10,6.87,15c4.33,10.12,8.26,20.41,11.62,30.9,1.67,5.25,3.19,10.55,4.42,15.92a75.06,75.06,0,0,1,2.23,16.42Z"/><path class="cls-2" d="M213.6,185a68.19,68.19,0,0,0-3-6.71c-1.09-2.22-2.24-4.41-3.4-6.6q-3.49-6.56-7.21-13c-5-8.58-10.16-17-15.7-25.25a261.62,261.62,0,0,0-17.82-23.79,123.94,123.94,0,0,0-10.29-10.72,51.23,51.23,0,0,0-12.11-8.54,51.29,51.29,0,0,1,12.19,8.45,124.12,124.12,0,0,1,10.39,10.65,262,262,0,0,1,18,23.67c5.62,8.19,10.89,16.6,15.93,25.15q3.77,6.42,7.33,13c1.18,2.19,2.35,4.38,3.46,6.6a67.93,67.93,0,0,1,3.13,6.83Z"/><path class="cls-2" d="M255.58,184.86a35.8,35.8,0,0,0-1.07-6.35c-.53-2.1-1.1-4.2-1.76-6.28-1.29-4.16-2.75-8.26-4.34-12.32a218.71,218.71,0,0,0-10.93-23.74,148,148,0,0,0-14.15-22,80.18,80.18,0,0,0-8.85-9.62,46.56,46.56,0,0,0-10.69-7.48,46.63,46.63,0,0,1,10.77,7.39,80.37,80.37,0,0,1,9,9.55,148.38,148.38,0,0,1,14.4,21.88,219.33,219.33,0,0,1,11.19,23.71c1.63,4.06,3.14,8.17,4.48,12.34.68,2.08,1.28,4.19,1.83,6.32a36.5,36.5,0,0,1,1.16,6.54Z"/><path class="cls-1" d="M230.23,223.57C229,208.89,209.15,152.09,194.11,129c-1.78-2.73,0-11.53-16.41-10"/><path class="cls-1" d="M223.78,236.18c-.42-4.37.72-12.4,6.62-11.83,7.32.7,6.34,9.3,6.34,10.71S230,233.65,223.78,236.18Z"/><path class="cls-1" d="M65.66,252.37c4.6,0,16.58-.14,18,.42s10.73,14.21-.42,14.49c-5.58.14-24.66.56-27.72.56s-11-8.5-11.15-11.15.28-4.18,2.65-4.18S65.66,252.37,65.66,252.37Z"/><path class="cls-1" d="M193.1,111.4c2.47,0,15.68.12,15.68.12s-3.09-5.18-4.69-5.31,3.21,5.43,6,5.56,7.9,0,7.9,0L215,106.59l10.74,14.2H215.33s-4.94-3-8.77-3.09-29.38-2.22-29.63-1.11.62,4,.62,4S166.68,106,165.7,105.72s4.69,4.44,5.06,4.44h9.51l-3.83-4.57,5.43,5.68Z"/><path class="cls-3" d="M217.64,116.83l.41-5.06-9.42.51v5.18s6.32,2.89,6.63,3.31c1.18.06,10.42.06,10.42.06l-7.83-3.16Z"/><polyline class="cls-1" points="180.14 111.53 180.01 115.61 175.5 116.95"/><line class="cls-3" x1="208.6" y1="117.46" x2="217.78" y2="117.55"/><path class="cls-3" d="M230.32,272.58c-1.8,3-4,11-4,11s-58.65,2.36-93.23,43.27c-17.23,20.39-42.49,56.25-26.58,104.35s66.85,58.34,81.27,59.22"/><path class="cls-2" d="M106.39,428.94a111.66,111.66,0,0,1-1.07-24.84,117.49,117.49,0,0,1,4.38-24.52,113.22,113.22,0,0,1,9.62-23,119.6,119.6,0,0,1,14.36-20.4,160.33,160.33,0,0,1,38.4-31.59,124.74,124.74,0,0,1,22.71-10.23c4-1.27,8-2.41,12-3.33s8.12-1.72,12.21-2.44c-4.07.81-8.13,1.67-12.15,2.68s-8,2.21-11.91,3.56a124.65,124.65,0,0,0-22.48,10.43,154.72,154.72,0,0,0-20.23,14.33l-4.68,4.08c-1.56,1.36-3,2.83-4.53,4.25L140.77,330l-2.16,2.23c-1.47,1.46-2.81,3-4.19,4.57A118.64,118.64,0,0,0,120.11,357a116,116,0,0,0-14.3,47.12A111.42,111.42,0,0,0,106.39,428.94Z"/><path class="cls-1" d="M257.61,279.38c-.1,1.59-.4,10-.4,10s45.57,7.76,53.45,66.15"/><path class="cls-1" d="M311.25,388.83c2.92-9.93,7.39-96.71-61-116.66-68.56-20-136.33,31.51-154.66,71.7-19,41.67-10.73,85.92,25.08,114.14"/><path class="cls-2" d="M227.09,287.42a27,27,0,0,0,6.49,5.27,26.31,26.31,0,0,0,7.73,3,22.08,22.08,0,0,0,8.26.41,13.09,13.09,0,0,0,4-1.19,4.84,4.84,0,0,0,2.83-2.86,3.24,3.24,0,0,1-1,1.87,8.24,8.24,0,0,1-1.7,1.31,13.42,13.42,0,0,1-4,1.44,17.47,17.47,0,0,1-4.27.29,23.6,23.6,0,0,1-4.24-.54,25.29,25.29,0,0,1-7.87-3.27A22.5,22.5,0,0,1,227.09,287.42Z"/><path class="cls-1" d="M85.76,381.32c-5.82-6.25-18.85-38.13-4.13-53.15,11.66-11.9,28.37-7.54,28.37-7.54"/><polygon class="cls-2" points="181.4 503.26 184.81 494.62 182.35 503.57 181.4 503.26"/><path class="cls-1" d="M110.26,448.39C72.93,443.15-2.8,365.52,47.55,294.19c31-43.9,101.45-12.17,106.61-9.59"/><path class="cls-1" d="M233.08,274.39c-2.1-1.91-17-15.86-17.77-26.18-.78-10.53,15.1-12.8,17.77-12.8s46.82,2.48,47.78,2.87S291,244.38,291,245.91s.57,8.6-.38,10.13S268,277.83,267.28,278.59s-26-.19-28.28-.57S233.08,274.39,233.08,274.39Z"/><path class="cls-1" d="M233.64,273.84c-4.2-6.22-6.9-12.52-6.68-17.16.41-8.61,9.66-14.2,15.58-14.76"/><path class="cls-2" d="M216.69,248q2.33,1.66,4.61,3.37a23.27,23.27,0,0,1,2.26,1.74,13.53,13.53,0,0,1,1.91,2.17l-.06.08a13.53,13.53,0,0,1-2.48-1.48,23.27,23.27,0,0,1-2.13-1.9q-2.11-1.92-4.16-3.91Z"/><path class="cls-1" d="M225.87,249c.54-1.63,4.63-8,10.35-8.85"/><path class="cls-2" d="M92.46,294.94a48.64,48.64,0,0,0-3.71-8.84,44.27,44.27,0,0,0-2.59-4,37.55,37.55,0,0,0-3-3.72l0-.06a15.83,15.83,0,0,1,3.54,3.33,22.27,22.27,0,0,1,2.52,4.16,43.32,43.32,0,0,1,3.25,9.1Z"/><path class="cls-2" d="M84.76,296a25.11,25.11,0,0,0-2.1-4,35.83,35.83,0,0,0-2.6-3.64c-.94-1.15-2-2.22-3-3.29S75,283,73.88,282l0-.06a19,19,0,0,1,3.66,2.69,23.25,23.25,0,0,1,3,3.46A30,30,0,0,1,84.83,296Z"/><path class="cls-2" d="M104.92,294.2a48.64,48.64,0,0,0-2.87-9.14,44.28,44.28,0,0,0-2.21-4.22,37.56,37.56,0,0,0-2.63-4l.05-.05a15.83,15.83,0,0,1,3.22,3.65,22.27,22.27,0,0,1,2.12,4.38,43.32,43.32,0,0,1,2.39,9.36Z"/><path class="cls-2" d="M113.92,295.77a22.32,22.32,0,0,0,.45-4.59c0-1.54,0-3.09-.06-4.63s-.26-3.07-.33-4.6-.16-3.06-.27-4.62l.1,0a16.82,16.82,0,0,1,1.17,4.56,31.25,31.25,0,0,1,.13,4.68c0,1.56-.1,3.12-.25,4.67a22.56,22.56,0,0,1-.85,4.59Z"/><path class="cls-2" d="M126.75,298.71a22.32,22.32,0,0,0,1-4.51c.22-1.53.37-3.06.48-4.6s.1-3.08.2-4.61.19-3.06.26-4.62h.1a16.82,16.82,0,0,1,.64,4.66,31.25,31.25,0,0,1-.41,4.67c-.21,1.55-.46,3.08-.78,4.61a22.56,22.56,0,0,1-1.38,4.47Z"/><path class="cls-2" d="M77.29,299.2a13.72,13.72,0,0,0-2.4-3.34,32.12,32.12,0,0,0-3-2.85c-1.05-.89-2.17-1.69-3.24-2.56s-2.16-1.71-3.2-2.65l0-.06a25.32,25.32,0,0,1,3.61,2.12,28.44,28.44,0,0,1,3.19,2.71,32.6,32.6,0,0,1,2.87,3,13.93,13.93,0,0,1,2.18,3.56Z"/><path class="cls-2" d="M70.63,307.3a13.72,13.72,0,0,0-2.4-3.34,32.11,32.11,0,0,0-3-2.85c-1.05-.89-2.17-1.69-3.24-2.56s-2.16-1.71-3.2-2.65l0-.06a25.31,25.31,0,0,1,3.61,2.12,28.44,28.44,0,0,1,3.19,2.71,32.59,32.59,0,0,1,2.87,3.05,13.93,13.93,0,0,1,2.18,3.56Z"/><path class="cls-2" d="M45.28,351.8a40.73,40.73,0,0,1,9.64-.21,31.22,31.22,0,0,1,4.8.61,16.79,16.79,0,0,1,4.56,1.68l0,.09c-1.59-.3-3.14-.55-4.72-.79s-3.12-.57-4.7-.8-3.17-.38-4.76-.48a30.18,30.18,0,0,0-4.78,0Z"/><path class="cls-2" d="M47.29,340.55a61.58,61.58,0,0,1,9,0,22.77,22.77,0,0,1,4.51.65,11.45,11.45,0,0,1,4.13,2l0,.09a33.07,33.07,0,0,0-4.31-1.08c-1.45-.27-2.89-.61-4.37-.83a81.82,81.82,0,0,0-8.94-.71Z"/><path class="cls-2" d="M101.15,457.84A25.86,25.86,0,0,1,94,456.62a59.89,59.89,0,0,1-6.79-2.52,101.71,101.71,0,0,1-12.77-6.83,140.28,140.28,0,0,1-22.73-17.93A128.45,128.45,0,0,1,33.27,407,100,100,0,0,1,21,380.75a82.5,82.5,0,0,1-2.82-14.26q-.86-7.2-1.06-14.47c-.25-9.65.5-19.48,3.65-28.7a55.6,55.6,0,0,1,6.43-13,72.18,72.18,0,0,1,9.36-11.08c6.93-6.75,14.68-12.55,22.15-18.64-7.36,6.22-15,12.15-21.8,19a72.12,72.12,0,0,0-9.18,11.08,54.9,54.9,0,0,0-6.23,12.91c-3,9.13-3.76,18.84-3.47,28.43q.23,7.21,1.1,14.38A82,82,0,0,0,22,380.47a99.08,99.08,0,0,0,12,26.05A132.18,132.18,0,0,0,52.27,428.8a140.34,140.34,0,0,0,22.46,18.07,101.36,101.36,0,0,0,12.61,7,59.72,59.72,0,0,0,6.73,2.62A25.8,25.8,0,0,0,101.15,457.84Z"/><path class="cls-1" d="M29,308.22c-3.14,2.23-27.6,23.26-14.66,71.72C22.76,427.21,81,481,131.89,468.31"/><path class="cls-1" d="M122.78,470.42C104.73,481.1,40.48,456.13,18,402.8c-19.67-46.63-9.71-72.36-1.68-85.22,5.62-9,15.8-15.39,17.36-16"/><path class="cls-2" d="M116.69,477c1.09-.71,2.16-1.62,3.32-2.39a17.75,17.75,0,0,1,3.68-2,14.1,14.1,0,0,1,4.06-.88,16.79,16.79,0,0,1,4.11.34,16.66,16.66,0,0,0-4.08-.09,13.72,13.72,0,0,0-3.89,1.1,17.13,17.13,0,0,0-3.44,2.11c-1.08.82-2,1.75-3.2,2.62Z"/><path class="cls-1" d="M117.31,482.79c-7.37.2-60.66,0-100.39-62.39s5.1-110,5.1-110"/><path class="cls-1" d="M116.42,478.77c.71,3,5,14.8,5,14.8"/><path class="cls-1" d="M143.73,476.44c.81,2.83,3.24,9.91,3.24,9.91a3.61,3.61,0,0,1-.71,3.64"/><line class="cls-1" x1="76.78" y1="271.65" x2="76.78" y2="273.59"/><line class="cls-1" x1="53.01" y1="282.62" x2="51.64" y2="285.01"/><ellipse class="cls-1" cx="133.72" cy="491" rx="6.67" ry="2.1" transform="translate(-97.76 37.81) rotate(-11.82)"/><path class="cls-1" d="M125.68,90.92c-13-.74-27.64,1-34.15,3.4-8.1,2.95-14.71,9.61-24.16,22.91S40.72,173,39.51,183.64s9.76,17.27,12.91,19"/><path class="cls-1" d="M128.42,101.66c-2.57-1.71-6.76-6.57-3.24-9.9s7.62-3.52,10.95-4"/><path class="cls-1" d="M87.94,74.6H71.09c-1,0-1.51-1.14-1.12-2.53h0c.39-1.39,1.52-2.53,2.53-2.53H89.34c1,0,1.51,1.14,1.12,2.53h0C90.08,73.46,88.94,74.6,87.94,74.6Z"/><path class="cls-1" d="M90.45,65.6H73.6c-1,0-1.29-1.14-.63-2.53h0c.66-1.39,2-2.53,3-2.53H92.83c1,0,1.29,1.14.63,2.53h0C92.81,64.46,91.45,65.6,90.45,65.6Z"/><path class="cls-1" d="M94.54,57.6H78.16c-1,0-1.25-1.14-.62-2.53h0c.64-1.39,2-2.53,2.93-2.53H96.86c1,0,1.25,1.14.62,2.53h0C96.84,56.46,95.52,57.6,94.54,57.6Z"/><path class="cls-1" d="M98.54,49.6H82.16c-1,0-1.25-1.14-.62-2.53h0c.64-1.39,2-2.53,2.93-2.53h16.38c1,0,1.25,1.14.62,2.53h0C100.84,48.46,99.52,49.6,98.54,49.6Z"/><path class="cls-1" d="M103.14,42.6h-16c-1,0-1.22-1.14-.6-2.53h0c.62-1.39,1.91-2.53,2.87-2.53h16c1,0,1.22,1.14.6,2.53h0C105.38,41.46,104.09,42.6,103.14,42.6Z"/><path class="cls-1" d="M108.12,35.6h-15c-.9,0-1.15-1.14-.57-2.53h0c.59-1.39,1.8-2.53,2.69-2.53h15c.9,0,1.15,1.14.57,2.53h0C110.23,34.46,109,35.6,108.12,35.6Z"/><path class="cls-1" d="M113,28.6H97.38c-.93,0-1.2-.94-.59-2.1h0a3.83,3.83,0,0,1,2.8-2.1h15.63c.93,0,1.2.94.59,2.1h0A3.83,3.83,0,0,1,113,28.6Z"/><path class="cls-1" d="M119,22.6H103.38c-.93,0-1.2-.85-.59-1.89h0a3.83,3.83,0,0,1,2.8-1.89h15.63c.93,0,1.2.85.59,1.89h0A3.83,3.83,0,0,1,119,22.6Z"/><path class="cls-3" d="M124,17.4H108.38c-.93,0-1.2-.58-.59-1.29h0a4.2,4.2,0,0,1,2.8-1.29h15.63c.93,0,1.2.58.59,1.29h0A4.2,4.2,0,0,1,124,17.4Z"/><path class="cls-4" d="M128.64,13.37H112.41c-1,0-1.24-.35-.61-.78h0a6.09,6.09,0,0,1,2.91-.78h16.23c1,0,1.24.35.61.78h0A6.09,6.09,0,0,1,128.64,13.37Z"/><path class="cls-4" d="M133.64,9.84H117.41c-1,0-1.24-.23-.61-.51h0a8.65,8.65,0,0,1,2.91-.51h16.23c1,0,1.24.23.61.51h0A8.65,8.65,0,0,1,133.64,9.84Z"/><path class="cls-2" d="M259.9,351.8a39.59,39.59,0,0,0-17.18-13.6A53.13,53.13,0,0,0,221,334.4a70.74,70.74,0,0,0-21.69,4.11,83.24,83.24,0,0,0-35.86,25.13,70.55,70.55,0,0,0-11.24,18.94,52.81,52.81,0,0,0-3.81,21.55,38.24,38.24,0,0,0,23.76,34.1,52.81,52.81,0,0,0,21.54,3.9,70.55,70.55,0,0,0,21.66-4,83.24,83.24,0,0,0,36-24.93,70.74,70.74,0,0,0,11.37-18.92,53.13,53.13,0,0,0,3.95-21.66A39.59,39.59,0,0,0,259.9,351.8Zm0,0a39.66,39.66,0,0,1,6.93,20.82A53.31,53.31,0,0,1,263,394.38a71,71,0,0,1-11.32,19.07,83.74,83.74,0,0,1-36.08,25.28,71.24,71.24,0,0,1-21.85,4.14A53.62,53.62,0,0,1,171.86,439a38.49,38.49,0,0,1-24.29-34.87,53.62,53.62,0,0,1,4-21.87A71.23,71.23,0,0,1,163,363.24a83.74,83.74,0,0,1,36.21-25.08,71,71,0,0,1,21.81-4,53.31,53.31,0,0,1,21.74,3.94A39.66,39.66,0,0,1,259.9,351.8Z"/><path class="cls-2" d="M272.3,313.11a50.25,50.25,0,0,1,5.64,7.38c1.68,2.61,3.22,5.3,4.65,8.06a99.67,99.67,0,0,1,6.86,17.29,80.83,80.83,0,0,1,2.12,36.93,81.65,81.65,0,0,1-15,33.87c-.94,1.24-1.86,2.5-2.82,3.72l-3,3.54c-.51.58-1,1.19-1.54,1.76l-1.63,1.67-3.26,3.34-3.45,3.14c-1.16,1-2.28,2.12-3.51,3.07l-3.63,2.93c-.61.48-1.2,1-1.82,1.45L250,442.62l-3.79,2.72c-1.26.92-2.61,1.7-3.91,2.55s-2.6,1.7-4,2.48l-4.07,2.28c-.68.37-1.35.77-2,1.13l-2.1,1c-1.4.67-2.79,1.37-4.21,2-2.89,1.15-5.72,2.45-8.71,3.36-2.92,1.08-6,1.79-9,2.59l-4.59.88-1.15.22-1.16.14-2.32.28a75.11,75.11,0,0,1-52.92-14,83.5,83.5,0,0,1-13.84-12.42,71.13,71.13,0,0,1-5.74-7.32,41.83,41.83,0,0,1-4.44-8.15,41.77,41.77,0,0,0,4.54,8.08,71,71,0,0,0,5.82,7.23,83.13,83.13,0,0,0,13.94,12.19,76.45,76.45,0,0,0,34.09,13.55,75.63,75.63,0,0,0,18.46.1l2.3-.28,1.15-.15,1.14-.22,4.54-.89c3-.81,6-1.53,8.88-2.61,3-.91,5.76-2.21,8.62-3.37,1.4-.65,2.78-1.35,4.17-2l2.08-1c.69-.35,1.35-.75,2-1.13l4-2.28c1.34-.77,2.61-1.66,3.91-2.48s2.62-1.63,3.87-2.55l3.76-2.71,1.88-1.35c.62-.46,1.21-1,1.82-1.43l3.62-2.89c1.23-.93,2.35-2,3.5-3l3.44-3.1,3.25-3.3,1.63-1.65c.53-.56,1-1.16,1.53-1.74l3-3.5c1-1.21,1.87-2.45,2.81-3.68A78.28,78.28,0,0,0,289,346a99.31,99.31,0,0,0-6.61-17.31c-1.39-2.77-2.89-5.48-4.53-8.1A50.2,50.2,0,0,0,272.3,313.11Z"/><ellipse class="cls-1" cx="211.21" cy="387.18" rx="39.02" ry="30.3" transform="translate(-187.87 199.42) rotate(-36.19)"/><path class="cls-5" d="M233.25,419.85H200a3.87,3.87,0,0,1-3.86-3.86l9-31.27a3.87,3.87,0,0,1,3.86-3.86h33.24a3.87,3.87,0,0,1,3.86,3.86l-9,31.27A3.87,3.87,0,0,1,233.25,419.85Z"/><path class="cls-2" d="M226.29,384.2a4.55,4.55,0,0,1,2.07.45,3.33,3.33,0,0,1,1.36,1.24,3.72,3.72,0,0,1,.53,1.83,5.66,5.66,0,0,1-.41,2.24,8.36,8.36,0,0,1-1.31,2.24,10.06,10.06,0,0,1-1.94,1.83,9.49,9.49,0,0,1-2.31,1.24,7.08,7.08,0,0,1-2.42.45,4.55,4.55,0,0,1-2.07-.45,3.33,3.33,0,0,1-1.36-1.24,3.72,3.72,0,0,1-.53-1.83,5.66,5.66,0,0,1,.41-2.24,8.36,8.36,0,0,1,1.31-2.24,10.06,10.06,0,0,1,1.94-1.83,9.49,9.49,0,0,1,2.31-1.24,7.08,7.08,0,0,1,2.42-.45m.17-.45c-3.43,0-7.28,2.78-8.6,6.21s.4,6.21,3.83,6.21,7.28-2.78,8.6-6.21-.4-6.21-3.83-6.21Z"/><path class="cls-2" d="M226.18,384.57l-7,9.44h6.6Zm-.82,9H222.7l2.81-3.81Zm.29-7.63-.12,3.14-3.32,4.5H220Z"/><line class="cls-3" x1="200.72" y1="401.19" x2="241.54" y2="401.02"/><line class="cls-3" x1="197.72" y1="411.19" x2="238.54" y2="411.02"/><line class="cls-3" x1="209.71" y1="419.85" x2="212.35" y2="410.84"/><path class="cls-1" d="M49.19,154.59c3,.06,13.67,0,13.67,0a3,3,0,0,1,2.94,2.94v.24a3,3,0,0,1-2.94,2.94l-15.08-.13c-1.62,0-1.06-1.81-.84-3.25S47.57,154.56,49.19,154.59Z"/><rect class="cls-1" x="42.87" y="188.3" width="18.76" height="6.88" rx="2.94" ry="2.94"/><path class="cls-1" d="M58.68,186.29H45.81c-1.34,0-2.44-.16-2.44-1.4l.3-2.34c0-1.81,1.8-2.62,3.75-2.62H58.68a3.33,3.33,0,0,1,3.44,3.18h0A3.33,3.33,0,0,1,58.68,186.29Z"/><path class="cls-1" d="M45.93,171.72c3,.06,13.67,0,13.67,0a3,3,0,0,1,2.94,2.94v.24a3,3,0,0,1-2.94,2.94l-15.08-.13c-1.62,0-1.06-1.81-.84-3.25S44.31,171.69,45.93,171.72Z"/><path class="cls-1" d="M47.43,163c3,.06,13.67,0,13.67,0A3,3,0,0,1,64,166v.24a3,3,0,0,1-2.94,2.94L46,169.05c-1.62,0-1.06-1.81-.84-3.25S45.81,163,47.43,163Z"/></g></g></svg>