<svg xmlns="http://www.w3.org/2000/svg" viewBox="0 0 170.59 181.96"><title>sans-fil</title><g id="Calque_2" data-name="Calque 2"><g id="Calque_1-2" data-name="Calque 1"><path d="M91.86,71.32C94,75.06,96,78.61,98,82.15l53.6,94.29c.2.35.38.7.57,1.06,1.4,2.67-.22,4.12-2.69,4.44a7.62,7.62,0,0,1-1,0h-127c-3.62,0-4.8-2-3-5.13l28.58-50.07,30.25-53c.39-.69.77-1.39,1.22-2.21-1.22-.59-2.35-1.16-3.5-1.69C68.74,67,63.64,62.77,61,56.21c-7.07-17.39,5.15-33.63,21-35.27C92.38,19.86,101.11,23.3,107.18,32c9.31,13.36,3.5,31.82-11.69,37.88Zm52.78,105L85.31,71.79,25.65,176.35ZM105.86,46.23a20,20,0,0,0-20.29-20c-11.76,0-20.8,8.62-20.81,19.88A20.42,20.42,0,0,0,85.13,66.42C96.7,66.43,105.86,57.51,105.86,46.23Z"/><path d="M170.56,49A88.28,88.28,0,0,1,158.1,90a5.7,5.7,0,0,1-2.32,2.22,2.4,2.4,0,0,1-2.91-1.09,2.85,2.85,0,0,1-.1-3.35c1.61-2.89,3.3-5.76,4.73-8.74a76.71,76.71,0,0,0,7.18-29.49c.8-16-3.4-30.74-11.59-44.42-1.1-1.84-1-3.2.35-4.27a2.52,2.52,0,0,1,4,.63,82.91,82.91,0,0,1,11.73,31.31c.66,4.46,1,9,1.4,13.47C170.64,47.15,170.56,48.07,170.56,49Z"/><path d="M0,46.09a87.41,87.41,0,0,1,12.63-44A5.3,5.3,0,0,1,13.94.59a2.5,2.5,0,0,1,3-.15A2.8,2.8,0,0,1,18,3.62a36.7,36.7,0,0,1-1.91,3.72A78.82,78.82,0,0,0,5.81,48.19a75.44,75.44,0,0,0,7.92,31.59c1.23,2.55,2.66,5,4,7.5.87,1.62.82,2.64-.2,3.59-1.94,1.81-3.32,1.6-4.7-.68a83.79,83.79,0,0,1-11.5-31C.68,54.86.43,50.46,0,46.09Z"/><path d="M139.8,47.37a59.05,59.05,0,0,1-4.91,22.2c-.88,2-2.48,2.53-4.16,1.56-1.3-.75-1.59-1.74-1-3.26.94-2.54,2-5.05,2.72-7.66a53.13,53.13,0,0,0-2.2-34.61,14.13,14.13,0,0,1-.54-1.46,2.59,2.59,0,0,1,1.42-3.39,2.64,2.64,0,0,1,3.68,1.48c1.35,3.79,2.73,7.59,3.7,11.48A51.7,51.7,0,0,1,139.8,47.37Z"/><path d="M30.74,44.38a57.48,57.48,0,0,1,4.88-21.47c.5-1.18,1.16-2,2.63-2,2.35,0,3.46,1.63,2.64,3.85s-1.78,4.53-2.47,6.86c-3.58,12-2.65,23.82,2,35.4.15.37.31.74.43,1.12.6,1.79,0,3.26-1.6,3.83a3,3,0,0,1-3.48-2c-1-2.82-2-5.63-2.88-8.49A58.66,58.66,0,0,1,30.74,44.38Z"/></g></g></svg>