<svg xmlns="http://www.w3.org/2000/svg" viewBox="0 0 40.63 40.63"><title>search</title><g id="Calque_2" data-name="Calque 2"><g id="Calque_1-2" data-name="Calque 1"><g id="_77_Essential_Icons" data-name="77 Essential Icons"><path id="Search" d="M40.31,35.12,30.2,25a16.37,16.37,0,0,0,2.51-8.82A16.13,16.13,0,0,0,16.46,0,16.25,16.25,0,0,0,0,16.36,16.45,16.45,0,0,0,16.46,32.72a16.13,16.13,0,0,0,8.61-2.46l10.1,10a1,1,0,0,0,1.5,0l3.69-3.69A1.08,1.08,0,0,0,40.31,35.12ZM16.46,30.58A14.32,14.32,0,0,1,2.14,16.3,14.13,14.13,0,0,1,16.46,2.08,14,14,0,0,1,30.58,16.14,14.14,14.14,0,0,1,16.46,30.58Zm19.4,7.48L26.78,29c.32-.27,1.82-1.76,2.19-2.19l9.09,9.09Z"/></g></g></g></svg>