<svg xmlns="http://www.w3.org/2000/svg" viewBox="0 0 204.72 188.6"><title>turntable</title><g id="Calque_2" data-name="Calque 2"><g id="Calque_1-2" data-name="Calque 1"><path d="M90.8,164.92H58.08v1.31q0,9.42,0,18.84c0,2.55-1,3.53-3.57,3.53H29.67c-2.4,0-3.43-1-3.43-3.42q0-9.42,0-18.84c0-.43,0-.87,0-1.46H3.77C.93,164.88,0,164,0,161.18Q0,82.41,0,3.64C0,.88.89,0,3.67,0H201c2.71,0,3.67,1,3.67,3.68q0,78.71,0,157.42c0,2.78-1,3.78-3.73,3.78H178.4v1.35q0,9.54,0,19.08c0,2.27-1,3.29-3.29,3.29h-25.2c-2.26,0-3.27-1-3.27-3.3q0-9.48,0-19V165h-32.8c0,.45,0,.88,0,1.31q0,5.58,0,11.16c0,2.21-1,3.25-3.2,3.25H94.08c-2.22,0-3.28-1.07-3.28-3.33q0-5.52,0-11ZM199.05,5.61H5.64V159.24H199.05ZM52.5,164.95H31.87V183H52.5Zm99.74,0V183h20.56v-18.1ZM96.37,175.09h11.89V165H96.37Z"/><path d="M151.72,82.48a69.28,69.28,0,1,1-138.56-.67c.19-38.63,32.36-69.45,70.68-68.68A69.49,69.49,0,0,1,151.72,82.48Zm-5.52,0C146.27,47.7,117.77,19,83.28,18.64c-35.22-.33-64.63,27.94-64.61,63.79a63.77,63.77,0,0,0,127.53,0Z"/><path d="M156.74,118.65c1.74-4.39,3.46-8.64,5.1-12.92,1.33-3.46,2.7-6.92,3.8-10.45a18.24,18.24,0,0,0,.65-5.33q.06-34.68,0-69.35V18.82c-1.21.35-2.3.58-3.32,1a16.92,16.92,0,0,0-5.87,27.76c.28.28.58.55.84.85a2.74,2.74,0,0,1,0,3.71,2.62,2.62,0,0,1-3.77.27,23.1,23.1,0,0,1-2.88-3,22.44,22.44,0,1,1,39.74-18.07c1.53,8.13-.88,15.07-6.79,20.81a2.72,2.72,0,0,1-4.05.11c-1.17-1.18-1.06-2.79.29-4.12,7-6.94,7.36-17.08.84-24.11a16.42,16.42,0,0,0-9.5-5.07v1.45c0,22-.09,43.92.05,65.87a43.57,43.57,0,0,1-3.51,18.06c-2.2,5-4.1,10.22-6.13,15.35-.12.29-.21.6-.37,1.06l3.09,1.24c1.94.78,2.57,2.19,1.8,4.12q-4.63,11.69-9.28,23.38c-.87,2.19-2.15,2.71-4.37,1.83l-11-4.37c-2.26-.9-2.81-2.17-1.92-4.43q4.58-11.58,9.18-23.16c.83-2.1,2.21-2.69,4.29-1.86Zm-3.51,26.69,7.58-19.12-7.06-2.8-7.58,19.12Z"/><path d="M181.6,138.77c-3.54-.67-4.38-1.29-4.32-3.05s1.09-2.47,4.32-2.83v-1.36q0-10.31,0-20.62a13,13,0,0,1,.07-1.55,2.71,2.71,0,0,1,2.67-2.56,2.83,2.83,0,0,1,2.83,2.56,8.35,8.35,0,0,1,0,1.08q0,10.55,0,21.1v.95a29.2,29.2,0,0,1,3.72,1.72,2.33,2.33,0,0,1,.6,1.73c0,1.73-1.1,2.43-4.32,2.78v1.24c0,2.84,0,5.67,0,8.51,0,2-1.09,3.23-2.75,3.26s-2.8-1.23-2.83-3.18c0-2.84,0-5.67,0-8.51C181.6,139.59,181.6,139.17,181.6,138.77Z"/><path d="M52.56,82.46A29.89,29.89,0,1,1,82.1,112.32C65.93,112.31,52.56,98.8,52.56,82.46Zm5.52-.05A24.36,24.36,0,1,0,82.74,58.08,24.35,24.35,0,0,0,58.08,82.4Z"/><path d="M26.24,79.84c.9-14.5,6.32-27,16.64-37.22A54.8,54.8,0,0,1,82,26.29c1.91,0,3.14,1,3.18,2.68S83.94,31.76,82,31.8c-.64,0-1.28,0-1.92.08A50.5,50.5,0,0,0,32.43,74.65c-.38,2.48-.5,5-.65,7.51-.11,1.77-1.15,3-2.72,3a2.88,2.88,0,0,1-2.82-3.09C26.23,81.35,26.24,80.59,26.24,79.84Z"/><path d="M84.66,138.59c-.72,0-1.44,0-2.16,0a2.78,2.78,0,1,1-.08-5.56c1.75-.14,3.52-.08,5.26-.29,17.69-2.17,30.84-11.15,39.46-26.68A48,48,0,0,0,133,82.84c0-2,1.13-3.19,2.82-3.16s2.75,1.22,2.68,3.15c-.75,22.39-11.09,38.91-30.67,49.61A53,53,0,0,1,84.66,138.59Z"/><path d="M84.45,125.46a19.81,19.81,0,0,1-2.27,0,2.74,2.74,0,0,1-2.49-2.87A2.65,2.65,0,0,1,82.41,120a37.15,37.15,0,0,0,24.31-9,36.67,36.67,0,0,0,13.12-26.52c0-.64.05-1.28.09-1.91a2.75,2.75,0,0,1,2.79-2.83,2.71,2.71,0,0,1,2.72,2.88,40.35,40.35,0,0,1-5,20C112.58,116.65,100.45,124.11,84.45,125.46Z"/><path d="M39.4,81.05A43.21,43.21,0,0,1,77.1,39.72a48.08,48.08,0,0,1,5-.34,2.79,2.79,0,1,1,0,5.54c-18,.44-32.38,12.11-36.37,29.62a48.51,48.51,0,0,0-.85,7.37c-.14,2-1.18,3.33-2.86,3.29s-2.68-1.33-2.69-3.31C39.4,81.61,39.4,81.33,39.4,81.05Z"/><path d="M86.24,82.46a3.8,3.8,0,0,1-3.8,3.82,3.89,3.89,0,0,1-3.88-3.9,4,4,0,0,1,3.84-3.85A3.87,3.87,0,0,1,86.24,82.46Z"/></g></g></svg>